<svg baseProfile="basic" xmlns="http://www.w3.org/2000/svg" width="900" height="900" viewBox="0 0 900 900"><path fill="#FFF" stroke="#000" stroke-width=".172" d="M108.956 403.826s.178 3.344-1.276 3.31c-1.455-.032-30.507-84.916-66.752-80.956 0 0 31.398-12.983 68.028 77.646zM115.19 398.488s-.97 3.207-2.328 2.68c-1.356-.527.203-90.232-35.227-98.838 0 0 33.94-1.526 37.554 96.158zM163.727 473.225s2.888 1.695 2.06 2.892c-.833 1.194-87.656-21.408-104.35 11.003 0-.002 6.494-33.35 102.29-13.895zM158.767 491.254s3.277.7 2.864 2.096c-.41 1.396-89.934 7.298-95.566 43.318 0 0-4.34-33.697 92.703-45.414z"/><path fill="#FFF" stroke="#000" stroke-width=".172" d="M151.332 481.498s3.14 1.17 2.528 2.492c-.61 1.32-90.037-5.9-100.864 28.915 0 0 .62-33.967 98.336-31.407zM132.43 449.356s2.31 2.427 1.18 3.347c-1.127.92-78.362-44.73-103.34-18.17 0 0 15.434-30.27 102.16 14.823z"/><path fill="#FFF" stroke="#000" stroke-width=".172" d="M119.108 456.757s2.57 2.148 1.554 3.192c-1.017 1.04-82.92-35.577-104.734-6.36 0 0 11.91-31.82 103.18 3.167z"/><path fill="#FFF" stroke="#000" stroke-width=".172" d="M114.518 463.946s2.84 1.778 1.974 2.95c-.865 1.17-86.997-23.942-104.623 7.974 0 0 7.46-33.146 102.648-10.924zM133.47 465.03s1.98 2.703.743 3.472c-1.237.768-71.985-54.405-100.16-31.267 0 0 19.183-28.04 99.417 27.795zM98.546 413.917s1.06 3.178-.353 3.53c-1.413.354-51.91-73.803-85.812-60.384 0 0 26.84-20.834 86.166 56.854zM99.773 426.24s1.722 2.875.417 3.522c-1.303.65-66.605-60.873-96.813-40.458 0 .002 21.71-26.13 96.396 36.935z"/><path fill="#FFF" stroke="#000" stroke-width=".172" d="M99.57 433.955s1.98 2.703.744 3.472c-1.238.767-71.985-54.405-100.162-31.267 0 0 19.183-28.04 99.418 27.795z"/><path fill="#FFF" stroke="#000" d="M95.668 436.985c.888 10.678 2.632 22.275 5.703 27.783 0 0-6.355 21.895 9.182 45.2 0 0-.707 12.712 2.12 18.362 0 0 7.062 14.832 15.537 16.244 6.857 1.143 22.26 6.56 39.67 9.04 0 0 30.248 24.86 24.598 47.46 0 0-.706 28.957-7.063 31.782 0 0 20.48-19.775 3.53 9.888l-7.768 33.192s45.2-38.138 17.657-5.648l-17.657 45.906s34.607-32.487 21.894-17.656l-5.65 15.538s76.277-48.025 21.895 4.237c0 0 14.125-6.356 21.894-1.412 0 0 12.005-2.118 10.593.707 0 0-36.726 18.36-43.082 50.85 0 0 14.832-17.656 9.182 1.413l.706 20.48s7.063-38.138 6.356 28.25c0 0 33.9-31.78 13.42 4.944v29.662s26.837-28.956 15.537-6.354c0 0 17.657-15.538 10.595 11.3 0 0-1.413 18.36 6.356-1.412 0 0 28.25-54.03 17.657-7.77 0 0-1.412 33.9 7.063 7.77 0 0 .706 18.362 16.95 31.075 0 0-2.12-89.695 20.48-26.133l7.063 28.957s4.943-16.245 4.237-25.427c0 0 26.132-28.957 14.125 14.125 0 0 26.838-40.257 21.188-16.95 0 0-13.42 28.25-10.594 36.727 0 0 29.662-61.444 31.78-64.27 0 0-3.53 74.864 15.538 11.3 0 0 9.888 21.187 4.943 28.956 0 0 14.126-14.124 12.713-19.773 0 0 8.122-14.48 13.066 9.534 0 0 3.177 16.6 6.002 10.947 0 0 7.063 42.377 9.182 2.12 0 0 2.825-24.014-9.888-44.495 0 0 1.412-5.65-3.53-12.713 0 0 24.013 38.138 11.3-12.714 0 0 19.776 14.125 21.895 14.125 0 0-24.014-40.962-8.476-32.486 0 0-9.183-18.362 22.602 2.825 0 0-28.252-28.252 2.825-11.302 0 0 14.126 11.3.707-6.356 0 0-25.428-28.25 13.42 3.532 0 0 20.48 28.956 21.894 33.9 0 0-17.654-51.56-25.425-56.5 0 0 14.832-64.272 87.576-36.728 0 0 12.008 30.37 19.775-2.118 0 0 22.602-11.3 42.375 37.432 0 0 7.063-24.013 5.65-28.956 0 0 12.007 2.12 10.594 0 0 0 23.308 7.77 25.427 6.356 0 0 12.007 12.006 12.713 5.648 0 0 16.244 4.944 12.713-1.412 0 0 15.538 27.544 16.244 33.9l4.236-24.72 3.53 4.943s2.826-13.42 1.414-15.538c-1.413-2.12 35.313 12.006 43.787 48.73l3.53 14.832s10.595-26.13 7.77-33.193c0 0 9.182 1.413 9.89 9.182 0 0 7.062-40.963-1.413-51.557 0 0 7.77-1.412 9.888 4.944v-12.71s12.713 1.41 12.713-2.825c0 0 7.77-7.063 11.3 1.412 0 0-21.894-62.15 10.594-28.25 0 0 12.713 19.068 6.355-14.125-6.357-33.194-13.42-36.02-4.943-36.727 0 0 1.412-6.355-2.118-9.18-3.53-2.826 2.118 0 2.118 0s8.476 7.062-.707-31.783c0 0 11.302 2.825-9.888-48.73 0 0 4.944-4.237-2.118-19.07 0 0 14.124 7.77 19.068 4.945 0 0-.707-2.825-6.356-9.89 0 0-38.14-96.758-2.118-57.912 0 0 20.923 23.925 9.623-16.332 0 0-16.088-42.394-14.716-49.98L95.67 436.986z"/><path fill="#CC7226" stroke="#000" d="M854.095 396.693c1.108.32 5.004 2.304 7.21 5.217 0 0 12.007 19.068 2.826-13.418 0 0-16.243-50.85-.706-31.076 0 0 10.594 12.713 4.944-11.3-6.824-29.004-11.3-40.257-11.3-40.257s20.48 8.474-26.838-61.445l15.536 6.356s-34.605-69.918-72.743-79.1l-14.125-10.594s67.8-67.094 45.2-132.07c0 0-12.008-9.182-28.958 7.063 0 0-11.3 8.474-21.894 5.65 0 0-54.382 2.118-57.913 2.118S630.36-21.844 514.533 9.23c0 0-9.183 3.532-16.95 1.414 0 0-32.49-28.25-118.653 12.006 0 0-17.655 3.53-20.48 3.53s-7.77 0-21.895 11.3-14.832 12.713-18.362 15.54c0 0-28.957 19.774-37.432 21.187 0 0-20.48 11.3-28.25 28.957l-6.355 2.12s-2.825 12.712-3.532 14.83c0 0-8.475 6.357-9.887 16.245 0 0-15.538 10.593-14.832 18.36 0 0-2.825 9.183-4.238 17.658 0 0-12.712 8.475-11.3 13.42 0 0-13.42 24.718-11.3 36.724 0 0-11.3-.706-16.244 3.53 0 0-1.413 8.476-4.238 9.183 0 0-4.944 2.12-.706 9.18 0 0-2.825 4.945-3.53 7.77 0 0 1.41 4.944-6.357 14.83 0 0-11.3 33.195-7.768 42.376 0 0 .707 8.476-4.237 11.3 0 0-6.356-.706 8.475 20.482 0 0 1.413 2.12-4.238 6.356 0 0-30.37 6.356-34.606 35.313 0 0-24.013 26.132-24.013 35.314 0 4.07.48 9.626 1.713 17.77 0 0-1.007 14.72 47.725 16.132 48.732 1.413 711.055-55.363 711.055-55.363z"/><path fill="#CC7226" d="M120.793 436.164c-44.14-69.566-18.716 30.018-18.716 30.018 15.538 60.738 244.365-5.65 244.365-5.65s298.042-53.676 317.816-60.738c19.775-7.063 187.864 4.237 187.864 4.237l-9.888-29.662c-114.414-81.926-148.314-40.963-172.327-48.025-24.013-7.062-19.774 9.888-25.425 11.3-5.65 1.412-74.863-42.375-86.163-40.963-11.302 1.413-56.046-40.523-29.664 15.538 28.25 60.032-103.115 69.213-132.778 49.438-29.663-19.775 12.713 32.488 12.713 32.488 32.488 35.313-28.25 5.65-28.25 5.65-60.736-22.6-103.113 22.6-108.763 24.013-5.65 1.412-14.125 7.063-15.538-4.237-1.413-11.3-14.673-40.79-70.626 5.65-35.313 29.312-59.68-9.535-59.68-9.535l-4.94 20.48z"/><path fill="#E87F3A" d="M560.632 299.76c-11.3 1.414-56.09-40.5-29.662 15.54 29.31 62.15-103.113 69.212-132.775 49.437-29.665-19.775 12.712 32.488 12.712 32.488 32.488 35.313-28.252 5.65-28.252 5.65-60.737-22.6-103.113 22.6-108.763 24.012-5.65 1.413-14.125 7.063-15.538-4.236-1.413-11.3-14.44-40.493-70.626 5.65-37.495 30.627-61.315-7.255-61.315-7.255l-5.65 17.85c-44.14-70.272-17.53 32.68-17.53 32.68 15.54 60.74 245.522-7.96 245.522-7.96s298.043-53.677 317.817-60.74c19.774-7.06 186.325 4.11 186.325 4.11l-9.762-30.563c-114.413-81.926-146.9-39.935-170.914-46.998-24.012-7.063-19.773 9.888-25.424 11.3-5.65 1.412-74.863-42.375-86.164-40.963z"/><path fill="#EA8C4D" d="M562.943 302.842c-11.3 1.413-54.973-41.014-29.663 15.538 28.604 63.918-103.113 69.215-132.776 49.44-29.662-19.775 12.713 32.488 12.713 32.488 32.488 35.313-28.25 5.65-28.25 5.65-60.738-22.6-103.115 22.6-108.766 24.012-5.65 1.413-14.124 7.063-15.537-4.236-1.413-11.3-14.21-40.198-70.625 5.65-39.68 31.94-62.952-4.977-62.952-4.977l-6.356 15.216c-42.022-68.86-16.34 35.345-16.34 35.345 15.537 60.738 246.677-10.27 246.677-10.27s298.04-53.678 317.814-60.74c19.776-7.062 184.784 3.98 184.784 3.98l-9.63-31.46c-114.415-81.926-145.49-38.91-169.503-45.972-24.013-7.063-19.774 9.888-25.426 11.302-5.647 1.41-74.86-42.38-86.16-40.966z"/><path fill="#EC9961" d="M565.255 305.925c-11.3 1.413-54.963-41.02-29.663 15.538 29.663 66.31-104.057 68.586-132.775 49.438-29.663-19.774 12.713 32.49 12.713 32.49 32.486 35.312-28.25 5.648-28.25 5.648-60.738-22.6-103.114 22.6-108.764 24.013-5.65 1.414-14.125 7.064-15.538-4.235-1.413-11.3-13.98-39.9-70.627 5.65-41.86 33.258-64.59-2.697-64.59-2.697l-7.063 12.584c-38.49-64.976-15.15 38.012-15.15 38.012 15.537 60.736 247.832-12.586 247.832-12.586S651.42 416.1 671.195 409.04c19.773-7.063 183.24 3.853 183.24 3.853l-9.502-32.358c-114.414-81.928-144.076-37.882-168.09-44.945-24.015-7.063-19.775 9.888-25.427 11.3-5.65 1.41-74.862-42.378-86.162-40.965z"/><path fill="#EEA575" d="M567.567 309.008c-11.303 1.412-54.07-41.412-29.664 15.538 29.664 69.213-103.114 69.213-132.776 49.438-29.663-19.775 12.713 32.487 12.713 32.487 32.487 35.314-28.25 5.65-28.25 5.65-60.74-22.6-103.114 22.602-108.764 24.014-5.65 1.412-14.125 7.063-15.538-4.237s-13.746-39.604-70.626 5.65c-44.046 34.574-66.23-.42-66.23-.42l-7.768 9.954c-34.96-61.445-13.964 40.674-13.964 40.674 15.538 60.74 248.99-14.895 248.99-14.895s298.042-53.678 317.815-60.74c19.775-7.062 181.7 3.725 181.7 3.725l-9.373-33.26c-114.414-81.925-142.664-36.852-166.677-43.914-24.014-7.06-19.775 9.89-25.426 11.3-5.65 1.413-74.862-42.375-86.163-40.962z"/><path fill="#F1B288" d="M569.88 312.09c-11.3 1.41-57.145-39.995-29.664 15.537 33.9 68.507-103.115 69.213-132.778 49.438-29.66-19.775 12.714 32.487 12.714 32.487 32.487 35.313-28.25 5.65-28.25 5.65-60.738-22.6-103.114 22.6-108.764 24.013-5.65 1.412-14.125 7.063-15.538-4.237-1.413-11.3-13.514-39.31-70.626 5.65-46.228 35.892-67.866 1.862-67.866 1.862l-8.475 7.317c-31.782-58.62-12.776 43.34-12.776 43.34C123.394 553.888 358 475.94 358 475.94s298.042-53.677 317.817-60.738c19.774-7.063 180.158 3.595 180.158 3.595l-9.244-34.156c-114.412-81.925-141.25-35.826-165.264-42.888-24.013-7.062-19.774 9.888-25.426 11.3-5.647 1.412-74.86-42.376-86.16-40.963z"/><path fill="#F3BF9C" d="M572.19 315.17c-11.303 1.412-57.813-39.657-29.665 15.537 36.02 70.627-103.113 69.214-132.776 49.44s12.712 32.487 12.712 32.487c32.487 35.313-28.25 5.65-28.25 5.65-60.738-22.6-103.114 22.6-108.764 24.013-5.65 1.412-14.125 7.063-15.538-4.237-1.412-11.3-13.283-39.014-70.625 5.65-48.412 37.207-69.503 4.14-69.503 4.14l-9.18 4.688c-28.25-53.322-11.59 46.004-11.59 46.004 15.537 60.738 251.3-19.52 251.3-19.52s298.04-53.676 317.816-60.737c19.775-7.063 178.62 3.466 178.62 3.466l-9.118-35.054c-114.414-81.926-139.84-34.8-163.853-41.862-24.014-7.064-19.774 9.888-25.425 11.3-5.65 1.412-74.862-42.377-86.162-40.965z"/><path fill="#F5CCB0" d="M574.5 318.252c-11.3 1.413-59.752-38.624-29.66 15.538 38.843 69.92-103.116 69.213-132.78 49.438-29.66-19.775 12.715 32.488 12.715 32.488 32.486 35.313-28.25 5.65-28.25 5.65-60.738-22.602-103.114 22.6-108.765 24.013-5.65 1.41-14.125 7.062-15.538-4.238-1.413-11.3-13.05-38.716-70.626 5.65-50.594 38.523-71.14 6.42-71.14 6.42l-9.887 2.055c-25.428-50.145-10.402 48.668-10.402 48.668 15.538 60.74 252.455-21.83 252.455-21.83S660.666 428.43 680.44 421.37c19.774-7.063 177.077 3.34 177.077 3.34l-8.987-35.957c-114.414-81.925-138.428-33.77-162.44-40.833-24.012-7.063-19.773 9.888-25.424 11.3-5.65 1.41-74.864-42.377-86.165-40.965z"/><path fill="#F8D8C4" d="M576.813 321.335c-11.3 1.413-59.753-38.625-29.662 15.538 38.846 69.92-103.112 69.213-132.775 49.438-29.662-19.774 12.713 32.49 12.713 32.49 32.488 35.312-28.25 5.65-28.25 5.65-60.74-22.603-103.115 22.6-108.766 24.012-5.65 1.412-14.125 7.063-15.538-4.238-1.413-11.3-12.817-38.42-70.625 5.65-52.778 39.84-72.777 8.7-72.777 8.7l-10.594-.578c-24.016-46.615-9.214 51.332-9.214 51.332 15.538 60.738 253.61-24.143 253.61-24.143s298.04-53.675 317.816-60.736c19.775-7.064 175.538 3.21 175.538 3.21l-8.86-36.855c-114.415-81.926-137.015-32.744-161.026-39.807-24.013-7.063-19.775 9.888-25.427 11.3-5.65 1.413-74.865-42.375-86.164-40.963z"/><path fill="#FAE5D7" d="M579.124 324.417c-11.3 1.413-59.068-38.998-29.663 15.538 38.845 72.038-103.112 69.213-132.775 49.438-29.662-19.775 12.714 32.488 12.714 32.488 32.485 35.314-28.252 5.65-28.252 5.65-60.737-22.6-103.113 22.6-108.764 24.014-5.652 1.412-14.127 7.063-15.54-4.238-1.412-11.3-12.585-38.123-70.625 5.65-54.96 41.157-74.414 10.98-74.414 10.98l-11.302-3.213c-22.954-42.375-8.025 54-8.025 54 15.537 60.737 254.768-26.456 254.768-26.456s298.04-53.675 317.814-60.736c19.775-7.062 173.997 3.083 173.997 3.083l-8.733-37.752c-114.413-81.927-135.602-31.717-159.613-38.78-24.014-7.063-19.774 9.888-25.426 11.3s-74.864-42.376-86.164-40.963z"/><path fill="#FCF2EB" d="M581.435 327.498c-11.3 1.412-57.16-39.98-29.66 15.538 37.43 75.57-103.115 69.215-132.777 49.44-29.663-19.776 12.713 32.487 12.713 32.487 32.488 35.313-28.25 5.65-28.25 5.65-60.738-22.602-103.113 22.6-108.763 24.012-5.65 1.413-14.125 7.063-15.538-4.237-1.414-11.3-12.355-37.827-70.627 5.65-57.145 42.473-76.053 13.258-76.053 13.258l-12.006-5.842c-22.6-40.964-6.836 56.66-6.836 56.66 15.538 60.737 255.92-28.765 255.92-28.765s298.044-53.677 317.818-60.738c19.775-7.063 172.454 2.95 172.454 2.95l-8.604-38.65c-114.415-81.925-134.188-30.687-158.2-37.75-24.014-7.064-19.775 9.887-25.426 11.3-5.652 1.413-74.865-42.377-86.165-40.964z"/><path fill="#FFF" d="M120.44 466.182c-22.6-38.846-5.65 59.325-5.65 59.325 15.538 60.738 257.078-31.075 257.078-31.075s298.042-53.677 317.816-60.738c19.775-7.063 170.914 2.823 170.914 2.823l-8.475-39.55c-114.414-81.926-132.776-29.663-156.79-36.726-24.012-7.062-19.774 9.89-25.425 11.3-5.65 1.414-74.862-42.374-86.163-40.962-11.3 1.412-55.83-40.623-29.663 15.538 39.245 84.232-107.28 66.436-132.777 49.438-29.663-19.775 12.712 32.488 12.712 32.488 32.488 35.313-28.25 5.65-28.25 5.65-60.737-22.602-103.113 22.602-108.764 24.014-5.65 1.413-14.125 7.063-15.538-4.237-1.413-11.303-12.12-37.533-70.625 5.65-59.326 43.787-77.688 15.536-77.688 15.536l-12.712-8.474z"/><path d="M193.89 519.15s-12.712 20.48 24.014 43.788c0 0 2.472 2.473-29.31-4.943 0 0-10.947-3.53-13.77-21.896 0 0-8.476-7.77-16.95-17.656-8.477-9.887 36.017.706 36.017.706z"/><path fill="#CCC" d="M441.08 435.104s31.25 47.356 30.193 55.797c-2.297 18.363-2.648 35.314 3 42.377 5.652 7.063 21.19 65.682 21.19 65.682s-.707 2.118 21.187-64.977c0 0 20.48-28.25-14.83-60.738 0 0-62.152-50.853-60.74-38.14z"/><path d="M229.204 566.47s19.775 12.713-5.65 67.802l11.3-4.237s-1.413 19.774-7.063 24.013l12.713-5.65s8.475 14.127 1.413 22.602c0 0 29.663 14.125 28.25 25.425 0 0 11.3-14.125 4.237-25.425s-19.775-4.237-18.363-36.727l-15.538 5.65s9.888-15.538 9.888-26.838l-14.125 4.237s27.313-46.928 8.475-49.438c-10.593-1.414-15.536-1.414-15.536-1.414z"/><path fill="#CCC" d="M286.41 596.133s4.944-7.77 0-6.355c-4.944 1.413-60.032 27.544-70.625 44.494 0 0 60.737-43.083 70.625-38.14zM304.773 610.258s4.944-7.77 0-6.355-60.032 27.544-70.625 44.494c0 0 60.737-43.083 70.625-38.14zM328.08 583.42s4.943-7.77 0-6.355c-4.944 1.412-60.033 27.545-70.626 44.494 0 0 60.737-43.083 70.625-38.14zM287.117 660.402s0-10.595-4.944-9.183c-4.944 1.412-68.507 32.487-79.1 49.437 0 .002 74.156-45.2 84.044-40.255zM289.235 641.333s2.12-8.475-2.825-7.063c-3.53 0-50.144 20.48-60.738 37.433 0 0 52.263-38.14 63.563-30.37zM263.81 725.378l-17.656 13.42s18.362-13.42 24.72-11.3c0 0-12.007 19.773-13.42 28.955 0 0 18.363-22.602 28.25-21.895 0 0 13.42.706 13.42 19.774 0 0 9.887-18.362 15.536-17.656 0 0 2.12 11.302 0 23.308 0 0 7.063-13.42 14.125-10.595 0 0 11.3-3.53 9.888 16.95 0 0 0 18.36-1.412 23.307 0 0 9.89-46.613 14.126-47.32 0 0 14.125-2.118 22.602 13.42 0 0-7.063-13.42 1.412-9.888 0 0 19.068 2.823 24.72 14.83 0 0-12.007-21.188-2.12-15.537 0 0 12.007 0 14.126 11.3 0 0 14.83 37.432 18.362 40.257 0 0-13.42-38.138-10.595-38.138 0 0-3.53-21.188 5.65 4.942 0 0-5.65-24.72 4.237-23.307 9.888 1.413 17.655 19.07 32.487 14.832 0 0 16.952 9.887 20.483-112.296l-218.94 82.634z"/><path d="M272.285 561.526s26.13-10.595 96.757 0c0 0 12.713.706 24.72-14.83 12.006-15.54 59.325-28.252 70.625-24.722l16.952 11.302 1.412 2.118s21.895 18.362 22.6 31.78c.706 13.42-25.425 98.17-42.377 126.42-16.95 28.25-33.9 50.146-67.8 45.907 0 0-36.727-7.062-81.927 0 0 0-51.557-2.824-56.5-16.95s19.775-40.962 19.775-40.962 7.77-14.83 5.65-40.257c-2.12-25.422-1.413-74.86-9.888-79.804z"/><path fill="#E5668C" d="M311.13 565.058c14.83 32.487-37.432 147.607-37.432 147.607-3.53 2.825 22.353 13.5 40.256 9.182 19.327-4.657 90.4 2.825 90.4 2.825 41.67-27.544 64.27-105.938 64.27-105.938s18.365-42.376-12.712-48.025c-31.075-5.652-144.783-5.652-144.783-5.652z"/><path fill="#B23259" d="M307.543 619.608c5.873-22.582 8.67-43.42 3.586-54.552 0 0 110.176 11.3 129.95-25.426 7.488-13.904 33.55 40.257 32.842 57.207 0 0-111.236 25.426-137.367 5.65l-29.012 17.12z"/><path fill="#A5264C" d="M315.367 648.396s3.53 12.713-.707 19.774c0 0-2.824 1.413-4.943 2.12 0 0 2.12 6.355 12.713 9.18 0 0 3.53 7.77 7.77 8.477s12.713 10.594 19.774 8.475c7.063-2.118 26.84-9.18 26.84-9.18s9.887-5.65 25.424.705c0 0 4.192-1.416 4.942-8.476.884-8.298 6.356-14.83 9.89-18.36 3.53-3.532 20.48-26.134 18.36-26.84-2.117-.706-120.063 14.126-120.063 14.126z"/><path fill="#FF727F" stroke="#000" d="M307.598 562.938s-4.943 39.552.707 54.383c5.65 14.833 4.237 18.363 2.824 25.427-1.413 7.063 6.355 24.72 16.243 35.313l21.188 2.825s26.84-6.355 43.083-1.412c0 0 15.88 2.37 21.895-24.014 0 0 8.476-11.3 21.188-16.244 12.713-4.943 25.426-78.395 18.362-92.52-7.063-14.126-32.488-21.896-60.738 5.648s-31.783-2.117-84.752 10.594z"/><path fill="#FFC" stroke="#000" stroke-width=".5" d="M310.423 695.01s-1.412-3.532-9.18-4.238c0 0-39.55-6.355-54.383-28.25 0 0-12.006-9.888-4.238 10.595 0 0 18.363 36.02 30.37 40.963 0-.002 28.956 7.06 37.43-19.07z"/><path fill="#CC3F4C" d="M451.572 582.058c1.163-13.96 4.61-29.17 1.515-35.36-11.382-22.77-41.35-13.254-60.738 5.647-28.25 27.544-31.78-2.118-84.752 10.595 0 0-3.08 24.653-1.598 42.332 0 0 65.867-20.438 67.28-10.55 0 0 2.823-5.65 19.067-5.65s56.4-2.07 59.225-7.014z"/><path stroke="#A51926" stroke-width="2" d="M375.398 564.352s8.476 8.476 2.118 25.426c0 0-25.426 28.25-21.895 52.97"/><path fill="#FFC" stroke="#000" stroke-width=".5" d="M290.648 714.078s-7.77-22.602 7.77-10.594c0 0 8.474 3.53 6.355 6.354-2.12 2.827-12.006 9.89-14.125 4.24z"/><path fill="#FFC" stroke="#000" stroke-width=".5" d="M299.547 716.196s-6.215-18.08 6.215-8.476c0 0 7.806 4.322 5.084 5.085-8.05 2.26 0 6.782-11.3 3.39z"/><path fill="#FFC" stroke="#000" stroke-width=".5" d="M308.02 716.196s-6.214-18.08 6.216-8.476c0 0 7.725 4.078 5.086 5.085-5.932 2.26 0 6.782-11.3 3.39z"/><path fill="#FFC" stroke="#000" stroke-width=".5" d="M319.675 716.55s-6.215-18.08 6.215-8.476c0 0 7.74 4.118 5.087 5.085-5.228 1.906 0 6.78-11.302 3.39z"/><path fill="#FFC" stroke="#000" stroke-width=".5" d="M331.116 716.408s-6.215-18.08 6.217-8.476c0 0 6.78 2.825 5.085 5.085-1.695 2.26 0 6.782-11.302 3.39z"/><path fill="#FFC" stroke="#000" stroke-width=".5" d="M342.91 717.61s-8.476-21.897 7.77-10.596c0 0 8.476 3.53 6.356 6.355-2.12 2.826 0 8.477-14.125 4.24z"/><path stroke="#A5264C" stroke-width="2" d="M292.767 687.24s23.307-4.944 33.9.706c0 0 10.594 2.12 12.713 1.412 2.118-.706 7.77-1.412 7.77-1.412M352.8 702.777s21.187-24.014 42.374-16.243c12.39 4.543 10.594-1.413 12.006-6.356 1.413-4.943 1.768-12.358 10.596-17.656"/><path fill="#FFC" stroke="#000" stroke-width=".5" d="M383.168 674.527s-7.063-19.07-12.007 3.53c-4.943 22.602-10.593 28.957-13.418 33.9 0 0 0 9.182 14.83 8.476 0 0 19.07-.707 19.775-5.65.708-4.943-2.117-25.425-9.18-40.256z"/><path stroke="#A5264C" stroke-width="2" d="M407.887 687.24s6.356-4.237 10.594-2.12M419.363 658.283s5.12-8.65 13.596-10.063"/><path fill="#B2B2B2" d="M279.348 723.26s31.78 5.65 39.55 2.824c0 0 15.537 0 .707 3.53 0 0-22.602 0-36.727-2.117 0 0-20.48-9.888-3.53-4.238z"/><path fill="#FFC" stroke="#000" stroke-width=".5" d="M304.066 558.7s31.075 0 34.606 1.413c0 0 12.713 54.382 6.356 67.8 0 0-2.118 4.945-7.063-4.942 0 0-32.488-57.912-38.138-61.442-5.65-3.532 2.12-2.827 4.24-2.827zM167.936 553.934s15.714 3.002 37.96 7.594c0 0 8.476 39.55 14.126 48.024 5.65 8.475-.706 8.476-7.063 3.53s-32.49-29.662-36.02-37.43c-3.53-7.77-9.004-21.718-9.004-21.718z"/><path fill="#FFC" stroke="#000" stroke-width=".5" d="M206.534 561.91s10.24 2.73 12.022 6.644c1.78 3.91-2.123 9.73-2.123 9.73s-1.766 5.835-3.888 2.018c-2.12-3.82-7.192-17.344-6.01-18.393z"/><path d="M206.603 561.526s6.356 9.182 12.713 9.182c6.356 0 7.03-.73 12.006.353 8.122 1.768 7.416-1.765 19.07.355 4.66.848 9.18-.706 14.124 1.412 4.944 2.12 10.594.706 12.713-2.825s10.593-10.946 10.593-10.946-22.6 3.18-27.544 4.59c0 0-39.55 2.118-53.677-2.12z"/><path fill="#FFC" stroke="#000" stroke-width=".5" d="M285.35 561.88s-11.388 6.18-12.094 10.417c-.707 4.237 9.27 10.77 9.27 10.77s4.855 8.123 5.915 3.885c1.06-4.238-1.677-24.366-3.09-25.073zM219.166 571.527s12.372 19.754 12.755-.04c0 0 .984-2.224-2.123-2.262-10.727-.133-8.04-7.375-10.63 2.302z"/><path fill="#FFC" stroke="#000" stroke-width=".5" d="M231.84 571.967s13.985 19.752 12.862-.164c0 0 .012-.587-3.083-.855-8.382-.733-7.773-8.71-9.78 1.02z"/><path fill="#FFC" stroke="#000" stroke-width=".5" d="M244.575 571.98s14.054 18.766 12.873 1.697c0 0 .21-2.177-2.71-2.708-6.872-1.245-7.244-6.983-10.163 1.01z"/><path fill="#FFC" stroke="#000" stroke-width=".5" d="M256.716 572.122s13.948 20.412 14.563 3.143c0 0 2.902-2.433-.18-2.824-10.274-1.307-8.865-9.17-14.384-.318z"/><path fill="#E5E5B2" d="M192.845 578.354l-13.52-2.702c-4.592-8.828-8.3-19.688-8.3-19.688s11.212 1.767 33.282 6.71c0 0 1.547 5.857 4.146 16.09l-15.608-.41zM307.732 570.123c-2.942-4.425-5.268-7.528-6.416-8.245-5.32-3.325 1.995-2.66 3.99-2.66 0 0 29.257 0 32.582 1.33 0 0 .926 3.96 2.134 9.946 0 0-17.812-3.55-32.29-.37z"/><path fill="#CC7226" d="M402.378 326.2c48.945 6.993 94.004-55.935 97.112-73.027 3.106-17.092-14.762-38.067-14.762-38.067 2.33-5.438-6.216-30.298-15.537-46.613-9.32-16.314-37.397-14.595-68.366-16.314-27.968-1.555-60.6 39.62-62.928 42.728-2.33 3.108 8.546 70.698 10.876 80.798s-2.33 56.712-2.33 56.712c60.455-16.07 6.992-13.21 55.936-6.217z"/><path fill="#EA8E51" d="M339.182 196.05c-2.288 3.052 8.392 69.414 10.68 79.33 2.288 9.915-2.288 55.68-2.288 55.68 57.687-15.678 6.864-12.966 54.918-6.1 48.056 6.864 92.296-54.92 95.347-71.702 3.05-16.78-14.493-37.375-14.493-37.375 2.288-5.34-6.103-29.748-15.255-45.766-9.153-16.018-36.717-14.328-67.125-16.018-27.46-1.527-59.497 38.9-61.785 41.95z"/><path fill="#EFAA7C" d="M340.467 197.195c-2.245 2.995 8.235 68.127 10.48 77.86s-2.245 54.65-2.245 54.65c55.448-16.174 6.737-12.728 53.9-5.99 47.166 6.738 90.587-53.9 93.58-70.373 2.995-16.47-14.223-36.683-14.223-36.683 2.244-5.24-5.99-29.198-14.974-44.92-8.984-15.72-36.037-14.062-65.882-15.72-26.95-1.498-58.39 38.18-60.637 41.175z"/><path fill="#F4C6A8" d="M341.753 198.34c-2.204 2.937 8.08 66.84 10.282 76.39 2.204 9.548-2.203 53.62-2.203 53.62 51.974-15.962 6.61-12.488 52.885-5.877 46.275 6.61 88.877-52.884 91.815-69.043 2.938-16.16-13.956-35.993-13.956-35.993 2.203-5.142-5.876-28.646-14.69-44.07-8.813-15.425-35.355-13.8-64.638-15.425-26.442-1.47-57.292 37.46-59.495 40.397z"/><path fill="#F9E2D3" d="M343.038 199.483c-2.16 2.88 7.924 65.557 10.085 74.92 2.16 9.366-2.16 52.59-2.16 52.59 49.204-15.75 6.482-12.247 51.867-5.764 45.386 6.482 87.168-51.87 90.05-67.72 2.88-15.848-13.688-35.298-13.688-35.298 2.16-5.042-5.765-28.095-14.408-43.223-8.646-15.13-34.677-13.535-63.396-15.13-25.933-1.44-56.19 36.742-58.35 39.623z"/><path fill="#FFF" d="M402.942 319.984c44.493 6.356 85.46-50.85 88.283-66.388 2.825-15.538-13.42-34.606-13.42-34.606 2.12-4.944-5.65-27.544-14.126-42.375-8.476-14.83-33.996-13.267-62.15-14.83-25.427-1.414-55.088 36.018-57.207 38.843-2.12 2.825 7.77 64.27 9.888 73.45 2.12 9.183-2.118 51.558-2.118 51.558 45.024-15.186 6.356-12.008 50.85-5.652z"/><path fill="#CCC" d="M484.87 259.953s-49.087 13.42-69.568 10.594c0 0-27.896-11.653-43.435 26.838 0 0-6.356 12.713-9.89 16.244-3.53 3.53 122.893-53.677 122.893-53.677z"/><path d="M491.58 256.068s-51.206 21.54-68.862 20.834c0 0-28.956-8.122-43.788 17.656 0 0-14.83 16.244-20.48 19.07 0 0-.706 2.824 10.594-4.24l18.363 9.183s26.13 16.95 43.08-11.3c0 0 7.064-19.774 7.064-23.306s37.434-13.42 40.26-14.125c2.823-.706 14.476-8.122 13.77-13.772z"/><path fill="#99CC32" d="M407.887 319.48c-12.134 0-26.918-6.825-26.918-17.858 0-11.032 14.783-22.094 26.917-22.094 12.138 0 21.976 8.943 21.976 19.975-.002 11.034-9.84 19.976-21.976 19.976z"/><path fill="#659900" d="M401.49 290.02c-8.558 1.276-17.542 3.93-17.415 3.548 2.72-8.156 13.95-14.04 23.812-14.04 7.585 0 14.273 3.492 18.222 8.806-.003 0-9.388-.58-24.62 1.687z"/><path fill="#FFF" d="M422.718 289.616s-7.77-5.65-7.77-1.766c0 0 6.358 7.77 7.77 1.766z"/><path d="M405.063 303.963c-4.412 0-7.99-3.577-7.99-7.99s3.578-7.99 7.99-7.99c4.413 0 7.99 3.577 7.99 7.99s-3.577 7.99-7.99 7.99z"/><path fill="#CC7226" d="M221.435 280.434s-5.65-37.432-1.413-45.2c0 0 19.07-17.657 18.363-24.013 0 0-.706-31.78-2.825-33.193-2.12-1.413-15.538-12.006-26.13-.706 0 0-18.364 31.782-16.95 43.083v3.53s-13.42-.705-16.245 2.826c0 0-2.12 9.18-4.238 9.887 0 0-4.944 4.237-1.413 9.18 0 0-3.53 4.238-2.825 11.3l13.418 7.064s3.53 25.426 22.6 34.607c8.54 4.112 14.125-7.77 17.657-18.363z"/><path fill="#FFF" d="M219.67 277.186s-5.086-33.688-1.272-40.68c0 0 17.162-15.892 16.527-21.612 0 0-.636-28.604-2.543-29.875-1.907-1.272-13.984-10.807-23.518-.637 0 0-16.526 28.604-15.255 38.773v3.178s-12.078-.636-14.62 2.542c0 0-1.908 8.263-3.814 8.9 0 0-4.45 3.812-1.27 8.262 0 0-3.18 3.813-2.543 10.17l12.077 6.356s3.178 22.883 20.34 31.146c7.682 3.7 12.71-6.99 15.89-16.524z"/><path fill="#EB955C" d="M234.765 179.775c-1.924-1.52-15.15-11.706-25.478-.688 0 0-17.904 30.987-16.526 42.004v3.444s-13.082-.688-15.837 2.754c0 0-2.066 8.952-4.132 9.64 0 0-4.82 4.133-1.376 8.953 0 0-3.443 4.133-2.754 11.02l13.083 6.885s3.443 24.79 22.035 33.74c8.323 4.01 13.772-7.573 17.215-17.902 0 0-5.51-36.496-1.377-44.07 0 0 18.592-17.215 17.903-23.413 0 0-.69-30.988-2.755-32.365z"/><path fill="#F2B892" d="M233.97 181.523c-1.73-1.625-14.76-11.406-24.824-.67 0 0-17.444 30.19-16.103 40.926v3.354s-12.748-.67-15.432 2.684c0 0-2.012 8.722-4.025 9.394 0 0-4.696 4.025-1.342 8.722 0 0-3.354 4.025-2.684 10.735l12.747 6.708s3.354 24.154 21.47 32.876c8.11 3.906 13.42-7.38 16.773-17.445 0 0-5.368-35.56-1.342-42.94 0 0 18.115-16.774 17.444-22.813.002 0-.67-30.192-2.68-31.534z"/><path fill="#F8DCC8" d="M233.176 183.27c-1.536-1.73-14.373-11.105-24.172-.652 0 0-16.985 29.398-15.68 39.85v3.267s-12.412-.653-15.025 2.613c0 0-1.96 8.493-3.92 9.146 0 0-4.573 3.92-1.307 8.493 0 0-3.267 3.92-2.613 10.453l12.413 6.533s3.266 23.518 20.905 32.01c7.897 3.804 13.065-7.185 16.332-16.984 0 0-5.227-34.625-1.307-41.812 0 0 17.64-16.332 16.985-22.21 0-.002-.652-29.4-2.612-30.707z"/><path fill="#FFF" d="M219.67 277.01s-5.086-33.513-1.272-40.505c0 0 17.162-15.89 16.527-21.61 0 0-.636-28.605-2.543-29.876-1.342-1.837-13.984-10.807-23.518-.637 0 0-16.526 28.604-15.255 38.773v3.178s-12.078-.636-14.62 2.542c0 0-1.908 8.263-3.814 8.9 0 0-4.45 3.812-1.27 8.262 0 0-3.18 3.813-2.543 10.17l12.077 6.356s3.178 22.883 20.34 31.146c7.682 3.7 12.71-7.167 15.89-16.7z"/><path fill="#CCC" d="M214.195 265.956s-38.138-18.01-39.727-19.422c0 0 16.067 14.48 17.48 14.48 1.413 0 22.247 4.942 22.247 4.942z"/><path d="M184.003 255.01s32.488 6.355 32.488 14.124c0 5.14-.428 28.834-9.887 26.13-14.83-4.236-8.475-29.66-22.6-40.255z"/><path fill="#99CC32" d="M198.834 261.718s15.852 2.603 17.656 7.416c1.06 2.825 2.23 17.494-7.416 19.422-8.036 1.61-11.973-16.438-10.24-26.838z"/><path d="M350.67 336.845c-.877-3.076 1.44-2.845 4.602-3.794 3.53-1.06 25.07-7.768 26.483-12.358 1.413-4.59 24.72 3.178 24.72 3.178 3.18 1.412 10.946 6.003 10.946 6.003 8.477 2.12 20.13 2.825 20.13 2.825 4.237 1.766 10.24 6.71 10.24 6.71 25.778 18.008 47.674 5.296 47.674 5.296 35.313-11.653 24.72-42.022 24.72-42.022-5.298-15.89.354-21.894.354-21.894.354-6.71 13.064 4.59 13.064 4.59 4.592 7.417 6.005 16.245 6.005 16.245 14.125 19.775 8.122-11.653 8.122-11.653.352-1.766-4.593-8.122-4.593-10.24s-3.18-8.123-3.18-8.123c-5.296-6.003-1.06-18.363-1.06-18.363 3.18-24.366-.705-21.188-.705-21.188-2.118-3.178-18.362 14.478-18.362 14.478-3.885 6.003-14.48 8.828-14.48 8.828-4.94 3.178-10.945.707-10.945.707-4.59-.708-14.48 11.652-14.48 11.652 4.944-.354 9.183 7.416 13.42 7.77 4.237.353 7.415-4.238 10.24-5.298 2.825-1.06 7.77 9.182 7.77 9.182.706 4.59-9.182 13.065-9.182 13.065-.707 8.123-3.53 5.298-3.53 5.298-5.298-1.06-7.416 5.65-9.183 13.772-1.766 8.122-9.182 8.83-9.182 8.83-2.825 13.064-4.945 7.768-4.945 7.768-.354-9.888-10.947.353-10.947.353-2.118 3.532-10.24-.352-10.24-.352-12.007-3.53-7.77-7.063-7.77-7.063 3.18-3.884 22.954 0 22.954 0 3.884-2.825-10.24-9.888-10.24-9.888-1.06-3.178.705-10.947.705-10.947 2.12-5.65 14.126-15.538 14.126-15.538 16.6-2.12 11.655-4.944 11.655-4.944-10.946-9.182-21.19 4.237-21.19 4.237-3.883 10.947-34.604 37.432-34.604 37.432-8.475 6.003-3.883-6.003-10.946 0S375.4 311.51 375.4 311.51c-20.415-2.107-25.24 25.687-31.47 20.18 0 0 9.566 15.042 6.74 5.155zM694.63 43.132s-45.202 14.125-50.146 47.32c0 0-4.237 40.255 31.78 71.33 0 0 .707 11.3 4.238 16.95 0 0-2.825 8.476 30.368-4.943l48.025-14.833s11.3-4.238 20.48-19.775c9.182-15.538 36.02-48.73 29.663-93.226 0 0 2.12-19.775-8.475-20.48 0 0-14.832-2.826-27.544 10.593 0 0-12.01 5.65-16.245 4.943l-62.146 2.12z"/><path d="M791.07 41.384s3.707-15.767-4.838-7.222c0 0-12.432 10.1-25.64 10.1 0 0-25.638 3.884-33.405 27.19 0 0-6.992 47.39 6.99 57.49 0 0 8.546 13.207 20.978 1.554 12.432-11.653 39.8-65.03 35.914-89.112z"/><path fill="#323232" d="M790.41 42.016s3.688-15.438-4.7-7.048c0 0-12.205 9.916-25.174 9.916 0 0-25.17 3.814-32.798 26.697 0 0-6.865 46.53 6.863 56.445 0 0 8.393 12.967 20.597 1.525 12.206-11.442 39.027-63.89 35.212-87.534z"/><path fill="#666" d="M789.75 42.648s3.672-15.11-4.564-6.875c0 0-11.978 9.732-24.705 9.732 0 0-24.704 3.743-32.19 26.202 0 0-6.738 45.667 6.737 55.4 0 0 8.234 12.726 20.213 1.496 11.98-11.23 38.252-62.748 34.51-85.955z"/><path fill="#999" d="M789.09 43.28s3.653-14.782-4.426-6.703c0 0-11.752 9.55-24.24 9.55 0 0-24.24 3.67-31.584 25.707 0 0-6.61 44.805 6.61 54.354 0 0 8.08 12.487 19.832 1.47 11.754-11.02 37.48-61.608 33.807-84.378z"/><path fill="#CCC" d="M788.43 43.912s3.637-14.454-4.288-6.53c0 0-11.527 9.366-23.773 9.366 0 0-23.773 3.602-30.98 25.213 0 0-6.48 43.944 6.484 53.31 0 0 7.924 12.247 19.45 1.44 11.527-10.806 36.706-60.466 33.105-82.798z"/><path fill="#FFF" d="M787.767 44.544s3.62-14.125-4.148-6.356c0 0-11.302 9.18-23.31 9.18 0 0-23.306 3.532-30.367 24.72 0 0-6.356 43.082 6.355 52.263 0 0 7.77 12.007 19.07 1.413 11.3-10.593 35.93-59.325 32.4-81.22z"/><path fill="#992600" d="M414.243 403.323s-36.02-33.9-50.146-35.313c0 0-60.738-7.063-86.87 24.72 0 0 31.076-36.02 79.807-26.132 0 0-38.138-7.77-60.032-2.12 0 0-29.663 0-46.613 24.72l-4.945 8.475s7.063-26.13 39.55-36.726c0 0 40.256-8.475 59.326 0 0 0-38.137-12.006-55.793-8.475 0 0-53.675-4.237-76.275 42.375 0 0 7.063-25.425 33.194-38.138 0 0 24.013-15.54 60.032-10.595 0 0 25.425 5.65 34.607 9.888 9.182 4.237 7.063-.707-7.77-9.182 0 0-9.888-17.655-34.606-16.95 0 0-75.57 6.357-93.933 27.545 0 0 24.013-19.775 42.375-24.72 0 0 39.55-14.124 54.38-12.712 0 0 43.79 1.766 57.208-5.297 0 0-19.775 8.828-14.125 14.48 5.65 5.65 17.656 19.068 17.656 21.187s42.73 41.14 49.086 48.908l3.887 4.063z"/><path fill="#CCC" d="M658.607 745.857s-27.367-64.445-49.438-81.22c0 0 45.905 28.25 52.085 60.03 0 .003 0 17.66-2.648 21.19zM741.593 759.1s-46.79-97.11-79.454-139.484c0 0 76.806 66.212 85.634 113l.883 9.712-5.297-4.414c-.002-.002-.884 15.89-1.767 21.186zM841.352 673.466S731 568.41 728.352 563.996c0 0 106.82 116.533 112.117 129.775 0 0-3.532-15.89.882-20.304zM508.528 750.27s34.43-91.812 67.977-52.086c0 0 26.485 17.656 25.604 22.953 0 0-7.064-11.477-38.847-10.594 0 .002-33.547-5.295-54.735 39.728zM844.883 525.152s-79.454-50.32-92.695-52.97c-20.848-4.17 87.398 51.203 96.228 69.742-.002.002 3.53-4.412-3.533-16.772z"/><path d="M578.803 713.37s36.02-3.53 48.025-15.536l7.77 6.356 31.074-67.802 6.356 9.183s25.426-26.13 24.013-40.256c-1.41-14.125 22.602 10.594 22.602 10.594s-1.413-20.48 11.3-8.477c0 0-4.236-27.543 10.595-13.418 0 0-18.604-53.246 21.188-7.77 9.89 11.3 2.12-.705 2.12-.705s-45.906-84.75-7.77-59.325c0 0 3.53-40.257 1.412-48.026-2.118-7.77-5.65-47.32-14.125-56.502-8.477-9.182.706-12.006 10.594-2.824 0 0-19.775-42.375 3.53-21.188 0 0-6.355-26.838-14.124-31.782 0 0-9.89-30.37 16.95-11.3 0 0-7.77-21.894-13.42-27.544 0 0-20.48-48.732-7.77-40.257l7.77 6.355s-12.007-24.72-.706-16.95 11.3 7.063 11.3 7.063-37.432-58.62-1.41-27.544c0 0-14.407-24.574-20.482-36.726 0 0-33.193-36.02-7.77-24.72l8.476 2.826s-15.538-17.656-29.663-20.48c-14.125-2.826 4.237-14.126 15.538-10.595 11.3 3.53 38.844 16.95 38.844 16.95s22.6 33.193 29.662 33.9c0 0-35.313-13.42-24.72.705 0 0 25.426 24.72 12.713 24.013 0 0-10.594 12.713-2.118 28.25 0 0-32.592-32.472-6.355 12.712l12.006 28.957s-43.08-43.788-23.306-4.944c0 0 30.37 41.67 33.9 42.375 3.53.707 11.3 16.244 11.3 16.244l-7.77-3.53 9.18 15.537s-19.773-21.19-9.18 2.118l9.887 25.425s-36.02-38.844-12.007 13.42c0 0-28.957-9.183-13.42 21.188 0 0-2.824 28.253-2.118 37.435.707 9.183 2.825 59.325-4.942 73.45-7.77 14.126 10.594 48.026 14.125 55.09 3.53 7.062 9.888 26.13-5.65 9.888-15.537-16.244-7.77-6.356-4.237 9.18 3.532 15.54 14.126 43.083 12.714 52.97 0 0-2.118 2.12-7.77-4.235 0 0-26.13-40.258-23.306-14.832 0 0-2.12 14.125-7.77 29.663 0 0-5.65 19.067-5.65 3.53 0 0-5.65-29.664-10.594-16.245-4.943 13.42-11.3 24.014-16.244 28.25-4.942 4.238-14.125-36.02-16.243-17.655 0 0-21.188-21.895-29.662 7.063l-20.482 28.957s-.706-21.894-2.824-11.3c-.005-.003-52.975 10.59-71.337 2.82zM518.064 83.39s-20.48-14.126-27.545-13.42c-7.064.706 48.73-15.538 121.476 33.194 0 0 8.476 4.944 14.832 4.238 0 0 5.648 4.237.706 10.594 0 0-15.538 16.95 4.237 36.725 0 0 32.488 12.007 22.602-3.53 0 0 19.07 7.063 23.307 14.125 4.237 7.062 2.117 0 2.117 0s-11.3-12.713-21.894-21.894c0 0-9.183-3.53-14.125-18.362-4.944-14.832-9.183-32.488-1.413-38.138 0 0-7.063 7.77-5.65.706 1.413-7.063 7.77-13.42 10.595-14.125 2.825-.706 31.78-28.603 43.788-29.31 0 0-16.244 2.473-21.54.707S617.292 23.003 606.7 20.884c0 0-29.662-11.653-8.476-8.122 0 0 63.21 6.71 95.346 30.016 0 0-12.713-14.832-45.2-27.19 0 0-39.197-22.248-101.35-13.42 0 0-31.428 5.65-45.2 8.828 0 0-4.59-1.06-5.65-1.766-1.058-.706-21.895-16.597-70.626-4.237 0 0-30.016 8.122-45.2 16.597 0 0-26.838 2.12-33.193 7.77 0 0-32.84 25.777-36.37 27.19-3.532 1.413-23.66 14.83-25.073 15.538 0 0 43.435-11.653 47.672-15.89 4.237-4.238 34.96-8.83 39.196-6.357 4.238 2.473 19.07 1.414 2.12 2.473 0 0 133.482 26.132 134.895 29.663 1.412 3.53 8.474 1.413 8.474 1.413z"/><path fill="#CC7226" d="M644.13 67.145S626.123 54.08 622.59 54.08c-3.53 0-25.425-18.01-32.84-17.304-7.416.707-28.957-16.95-77.336-2.472 0 0-1.06-3.53 5.297-4.944 0 0 11.302-3.884 12.008-4.944 0 0 35.666-7.416 48.378-1.06 0 0 16.244 4.59 27.19 15.538 0 0 19.776 5.65 25.426 3.885 0 0 15.538 3.883 16.244 7.062 0 0 10.24 5.297 7.063 9.888 0 0 .705 2.824-9.89 7.415z"/><path fill="#CC7226" d="M622.112 63.42c1.425 1.117 3.224 1.29 4.292 2.718.413.554-.1 1.13-.653 1.3-1.84.56-3.705-.446-5.722.592-.71.366-1.844.044-2.82-.22-2.88-.778-6.11-.822-9.096.393-3.505-1.994-7.672-.962-11.348-2.73-.102-.047-.493.563-.625.516-5.38-2.022-11.986-1.523-16.28-5.556-4.285-.728-8.447-1.543-12.734-2.744-3.21-.9-5.697-2.645-8.558-4.114-2.433-1.25-5.004-2.17-7.713-2.828-3.29-.798-6.52-.6-9.864-1.52-.163-.043-.502.564-.647.517-.57-.19-1.084-1.22-1.386-1.127-2.968.922-5.595-.794-8.533-.19-2.08-2.16-5.13-1.73-7.86-2.51-5.232-1.497-10.803.746-16.15-1.02 7.26-3.253 15.537-1.078 22.71-4.73 4.11-2.095 8.81-.15 13.347-1.49.86-.255 2.08-.612 2.787.57.237-.24.56-.662.66-.612 4.326 2.042 8.414 4.292 12.796 6.174.604.258 1.542-.152 1.986.205 2.683 2.147 6.113 1.965 8.568 4.12 2.998-.887 6.164-.216 9.218-1.318.137-.048.55.554.606.516 1.995-1.32 4.035-.842 5.61-.306.596.203 1.767.64 2.306.77 1.987.487 3.5 1.335 5.58 1.658.202.032.528-.568.656-.52 1.982.774 3.822.675 4.98 2.73.237-.238.528-.658.675-.61 1.812.596 2.958 1.93 4.9 2.354.856.186 1.938 1.29 2.954 1.602 4.224 1.29 7.48 3.99 11.353 5.57 1.34.55 2.887.963 4.005 1.84zM486.804 38.296c-4.445-3.046-8.627-5-12.938-8.152-.32-.235-.955.065-1.313-.15-1.776-1.075-3.346-2.1-5.08-3.33-.95-.674-2.4-.655-3.298-1.11-4.49-2.28-9.134-3.267-13.56-5.375 1.204-1.127 3.185-.696 4.236-2.12.347.495.767.996 1.39.66 2.963-1.597 6.23-1.867 9.188-1.71 3.01.164 6.046.702 9.18 1.182.543.083.895 1.006 1.465 1.178 3.934 1.17 8.15.244 11.894 1.723 2.81 1.11 5.58 2.564 7.77 4.815.444.46-.13.99-.623 1.333.685-.192 1.167.172 1.36.725.15.422.15.955 0 1.377-.195.55-.688.73-1.35.82-2.484.335.645-2.102-.59-1.31-2.25 1.437-.933 3.92-2.247 6.158-.494-.342-.9-.728-.706-1.413.414.922-.65 1.434-.946 1.992-.68 1.28-2.268 3.777-3.83 2.706zM429.424 51.27c-5.568-1.402-10.954-1.2-16.28-3.452-.116-.05-.51.563-.624.516-2.41-1.05-4.032-2.754-5.933-4.602-1.612-1.568-4.54-.884-6.79-1.744-.57-.22-.93-1.123-1.46-1.192-2.153-.277-3.79-1.953-5.635-2.96 4.124-1.405 8.38-1.35 12.73-2.028.198-.03.454.535.69.535.24 0 .47-.39.705-.627.345.495.878 1.07 1.33.622.97-.953 1.95-.618 2.903-.547.255.02.476.554.71.554.24 0 .472-.55.706-.55.24.002.472.55.706.55.24 0 .47-.39.706-.627 1.223 1.38 2.784.403 4.235.72 1.833.4 2.305 2.427 4.2 2.953 8.325 2.302 15.63 6.09 23.334 9.774.542.26.912.698.72 1.384.47 0 1.022-.155 1.358.078 1.867 1.292 3.706 2.26 4.937 4.2.38.598-.2 1.316-.61 1.225-7.82-1.758-14.892-2.83-22.638-4.78zM404.952 129.332c-2.813-2.152-3.842-5.738-5.834-8.902-.378-.6.105-1.154.666-1.312.987-.28 1.946.563 2.67.92 3.08 1.522 5.79 3.715 9.315 3.96 3.514 3.945 11.035 4.625 11.048 10.594.002 1.517-2.52-.104-3.278 1.412-4.328-1.77-8.546-1.59-12.748-4.18-1.09-.672-.507-1.47-1.84-2.492zM356.33 36.5c.238.002 12.652.413 12.622.614-.08.546-13.73 2.398-14.37 2.098-.29-.134-13.554 4.156-13.79 3.92.474-.238 15.068-6.632 15.538-6.632z"/><path d="M383.52 53.726s-26.132 3.178-33.9 5.297c-7.77 2.12-40.608 15.538-45.906 19.07 0 0-23.66 9.534-53.675 44.847 0 0 13.418-6.003 17.302-10.947 0 0 24.013-22.247 23.66-17.656 0 0 21.54-15.185 20.48-11.3 0 0 43.083-19.775 39.552-14.125 0 0 38.138-8.122 36.372-4.59 0 0 33.192 7.768 28.25 8.12 0 0-10.24 2.12 1.06 8.476 0 0-6.003 7.77-15.538.707-9.534-7.063-4.236-3.178-13.064-1.413 0 0-4.592 1.413-12.713-5.65 0 0-9.888-8.122-25.425-1.766 0 0-54.03 22.247-57.56 23.307 0 0-6.356 4.944-10.594 11.3 0 0-10.24 7.77-15.537 10.24 0 0-22.6 20.482-24.72 22.954 0 0-6.002 9.18-7.415 9.888 0 0 11.3-6.71 14.83-10.24 0 0 24.72-17.657 34.254-19.07 0 0 7.77-5.297 9.182-7.77 0 0 25.425-16.243 32.84-16.243 0 0 16.244 9.18 20.482-3.178 0 0 10.24-3.178 20.128-1.06 0 0 5.65-4.59 4.236-8.475 0 0 2.825-3.18 4.592 3.53 0 0 6.003 6.356 14.48 2.825 0 0 7.062-.353 3.53 3.884 0 0-7.77 6.708-28.604 7.062 0 0-21.895 1.06-50.85 14.48 0 0-52.617 18.362-68.86 36.724 0 0-11.3 15.538-20.835 17.657 0 0-10.24 1.412-20.834 14.478 0 0 17.302-10.24 33.193-10.24 0 0 7.063-4.237.353 2.12 0 0-6.356 13.417-3.53 22.952 0 0-1.06 9.18-2.473 12.006 0 0-13.772 22.6-13.772 26.838 0 4.237 2.12 21.54 2.826 22.6.706 1.06-1.766-2.825 4.944 1.413 6.71 4.236 11.653 7.062 13.065 12.005 1.413 4.944-3.53-9.535-3.884-12.713-.352-3.178-7.768-15.89-6.355-20.128 0 0 1.766 1.766 3.178 4.237 0 0-1.06-1.06 0-7.415 0 0 1.413-9.182 3.885-14.832s6.003-12.36 6.71-13.772c.706-1.412.706-11.652 3.177-7.062l6.003 4.59s-4.944-4.59-1.06-8.475c0 0-1.766-9.888 1.413-14.48 0 0 12.36-14.83 15.186-16.596 2.826-1.765.353-1.06.353-1.06s10.593-7.415.352-4.59c0 0-7.063 2.825-12.36 2.825 0 0-13.418 3.53-6.355-3.885s24.72-16.95 31.43-16.597l1.412 2.825 19.774-4.237-2.12 1.413s-.352-.353 7.064-1.06 17.656 1.767 20.128-1.412c2.473-3.178 8.477-4.944 7.77-2.472-.705 2.472-1.06 6.003-1.06 6.003s8.828-10.242 7.77-6.357c-1.06 3.884-15.537 13.065-18.01 24.013l18.362-14.48 6.356-5.296s6.355 3.884 6.71 1.06c.353-2.825 8.475-13.066 10.593-12.713 2.12.353 5.65-4.59 5.297 0-.353 4.59 13.066 14.125 13.066 14.125s5.648-3.178 8.122-.706c2.472 2.472 9.887-34.96 9.887-34.96l44.14-18.716 76.984-6.003-30.017-12.006L383.52 53.727z"/><path stroke="#4C0000" stroke-width="2" d="M415.655 405.09s-26.484-29.664-41.316-34.255c0 0-23.66-12.006-67.095 1.766"/><path stroke="#4C0000" stroke-width="2" d="M368.69 368.363s-44.495-14.125-71.688-6.71c0 0-32.488 3.532-47.32 27.898"/><path stroke="#4C0000" stroke-width="2" d="M362.333 366.245s-30.016-12.713-56.147-16.597c0 0-29.31-4.59-58.62 8.122 0 0-21.54 10.594-31.075 28.603"/><path stroke="#4C0000" stroke-width="2" d="M364.1 366.95s-27.19-19.42-28.958-21.893c0 0-12.358-19.422-35.313-20.128 0 0-37.786 1.412-68.155 15.537"/><path d="M361.794 351.072c2.723 2.583 50.33 53.664 50.33 53.664 62.15 64.624 12.713 4.236 12.713 4.236-13.42-8.475-29.663-41.67-29.663-41.67-2.12-4.943 24.72 12.714 24.72 12.714 7.062 1.412 31.074 35.313 31.074 35.313-12.006-4.238-3.53 8.475-3.53 8.475 4.943 3.53 40.965 31.077 40.965 31.077 6.355 7.063 13.42 9.888 13.42 9.888 24.718-9.182 13.418 14.125 13.418 14.125 4.237 12.007 14.126-8.476 14.126-8.476 19.774-29.665-9.182-25.426-9.182-25.426-52.972 4.942-64.978-23.31-64.978-23.31-4.238-4.236 11.3 0 11.3 0 14.833 3.53-12.713-21.894-12.713-21.894 4.237 0 20.48 12.006 20.48 12.006 18.364 16.244 21.897 12.713 21.897 12.713 31.782-15.54 50.146-2.12 50.146-2.12 3.53 2.825-6.356 14.832-3.53 24.016 2.824 9.182 11.3 31.075 11.3 31.075-4.238 2.825-3.532 21.896-3.532 21.896 29.663 40.963 12.713 37.432 12.713 37.432-27.544-.707-1.41 12.712-1.41 12.712 5.647 3.53 21.187 16.244 21.187 16.244-4.944-2.12-7.77 7.063-7.77 7.063 8.476 7.063 3.53 15.538 3.53 15.538-10.593 2.118-12.712 9.18-12.712 9.18 12.006 14.127-5.65 14.833-5.65 14.833 6.356 7.77-2.117 28.956-2.117 28.956-8.477 0-19.775 9.888-19.775 9.888 4.237 8.477-14.125 18.363-14.125 18.363-14.832 2.824-9.888 14.83-9.888 14.83-14.125 10.595-18.363 38.845-18.363 38.845-1.412 18.363-5.648 24.014 3.53 20.48 9.183-3.53 7.77-25.424 7.77-25.424C499 690.77 574.57 662.52 574.57 662.52c7.063-2.823 8.476-12.006 8.476-12.006 3.53.706 19.07 14.125 19.07 14.125 13.417 19.774 14.124 3.53 14.124 3.53 2.118-6.356-.707-16.95-.707-16.95 10.595-38.138-14.125-49.438-14.125-49.438-17.656-59.326 7.063-44.494 7.063-44.494 4.945 9.888 24.015 19.068 24.015 19.068l6.355-4.237c-2.824-8.478 12.007-19.07 12.007-19.07 4.943 11.3 15.537-2.824 15.537-2.824 6.356-43.082 28.25-17.656 28.25-17.656 7.064 2.12 9.183-9.89 9.183-9.89 6.355-18.36 0-42.374 0-42.374 6.355-.706 23.307 9.89 23.307 9.89 4.944-6.357-11.3-36.022-4.237-31.782 7.063 4.237 14.83 7.063 14.83 7.063 1.414-3.53-16.242-25.426-16.242-25.426-7.77-4.944-16.95-40.964-16.95-40.964 12.713 6.356-4.943-20.48-4.943-20.48 0-5.65 10.594-25.426 10.594-25.426-1.412-12.006 0-11.3 0-11.3 4.944 2.12 19.07 4.944 7.063-6.356-12.007-11.3 1.412-19.775 1.412-19.775 7.77-4.945-16.244-4.24-16.244-4.24-9.183-7.768-8.477-14.83-8.477-14.83 14.127 3.53-11.3-21.894-15.535-28.25-4.237-6.356 12.713-15.538 12.713-15.538 23.307-6.356 2.823-12.006 2.823-12.006-34.604.706-15.535-18.363-15.535-18.363 10.594.707 7.77-3.53 7.77-3.53-9.182-2.12-26.133-13.42-26.133-13.42-7.063-6.356-.706-4.944-.706-4.944 29.663 2.118-21.188-17.657-21.188-17.657 14.125 0-17.655-18.363-17.655-18.363-3.53-2.825-9.183-16.244-9.183-16.244-10.594-9.182-19.067-21.188-19.067-21.188-.707-7.77-9.183-16.244-9.183-16.244-20.48-24.013-30.37-23.307-30.37-23.307-26.13-6.356-35.312-4.944-35.312-4.944l-93.23 7.77c-46.61 22.6-32.84 59.678-32.84 59.678 11.3 14.832 27.543 8.123 27.543 8.123 8.123-10.947 28.605-7.063 28.605-7.063 36.02 5.65 31.43-.706 31.43-.706-4.236-8.122-32.842-19.07-33.195-20.128-.353-1.06-15.89-7.063-15.89-7.063-5.298-2.12-13.066-18.363-13.066-18.363-5.65-6.003 22.247 4.238 22.247 4.238-2.118 1.766 10.948 8.828 10.948 8.828 30.724-1.766 49.44 17.303 49.44 17.303 19.067 29.31 19.42 14.83 19.42 14.83 4.944-16.596-15.89-54.028-15.89-54.028.705-3.53 15.185 8.122 15.185 8.122 2.472-3.53 3.885 6.71 3.885 6.71.353 4.236 7.063 18.36 7.063 18.36 4.943 22.955 11.3 9.89 11.3 9.89l8.123 16.596c2.472 4.59-8.122 18.01-8.122 18.01-.353 4.944 1.06 4.59-8.827 18.01s-3.885 21.187-3.885 21.187c-2.473 11.653 13.064 10.947 13.064 10.947 4.59 3.884 10.595 3.884 10.595 3.884 3.18 3.53 7.415 2.472 7.415 2.472 2.825-6.71 13.772-3.178 13.772-3.178 2.472-4.238 16.95-4.944 16.95-4.944 1.766-4.59 2.472-7.416 8.475-8.475 6.003-1.06-37.433-76.982-37.433-76.982 11.3-1.412-3.18-23.306-3.18-23.306-3.884-11.653 16.245 14.125 20.13 16.597 3.885 2.473 5.65 6.357 2.824 6.004s-6.002 3.532-3.53 3.885c2.473.353 25.427 26.836 31.43 44.846 6.003 18.01 16.597 25.072 27.544 35.666 10.947 10.594 9.534 53.322 9.534 53.322-.706 15.538 9.888 34.253 9.888 34.253 3.53 6.71-3.885 38.844-3.885 38.844-3.53 3.885-1.06 5.298-1.06 5.298 1.768 2.12 13.772 25.425 13.772 25.425-3.178-.353 3.18 6.003 3.18 6.003 9.18 10.594-2.12 5.297-2.12 5.297-10.594-2.825 1.767 14.48 1.767 14.48 2.118 3.177-13.773-4.945-13.773-4.945-16.243-1.06 4.238 11.653 4.238 11.653 15.185 12.714-4.944 4.944-4.944 4.944-8.12-3.18-2.47 8.828-2.47 8.828 5.648 2.824 36.02 15.186 36.02 15.186.705 6.71-4.592 15.54-4.592 15.54.706 7.062-3.18 13.063-3.18 13.063-2.117 14.48-3.177 15.892-3.177 15.892-7.415.354-20.48 24.72-20.48 24.72-3.18 4.592-21.188 25.778-21.188 25.778-3.53 12.36-35.313-.354-35.313-.354-11.654 6.003-8.123 0-8.123 0-.706-3.884 7.77-14.48 7.77-14.48 12.36-4.59 7.77-23.657 7.77-23.657 7.063-2.474-12.713-7.417-12.36-9.535.355-2.12 10.596-4.59 10.596-4.59 14.125-3.532 6.355-7.77 6.355-7.77-1.06-7.064 4.237-16.95 4.237-16.95 20.48-1.414 0-30.02 0-30.02-19.068-13.418-20.835-23.66-20.835-23.66 22.247-14.477 7.77-36.37 8.122-42.728l2.473-44.494c-3.53-10.947-8.828-34.96-8.828-34.96 3.885-9.18 16.95-31.428 16.95-31.428 4.943-7.416 20.48-15.89 16.597-21.188-3.885-5.297-17.655-2.12-17.655-2.12-13.773-2.47-12.714 6.71-12.714 6.71C595.41 234.523 594 243.35 594 243.35c-1.274 14.008-16.95 25.073-16.95 25.073-19.776 10.947-3.532 18.01-3.532 18.01 10.595 11.653-6.71 12.006-6.71 12.006-19.422-3.18-4.942 14.83-4.942 14.83 19.067 22.6 13.77 27.544 13.77 27.544-18.008 1.766 4.238 18.01 4.238 18.01s-1.412-3.532-1.06-.354c.354 3.178 5.65 10.594 7.063 14.125 1.412 3.53-5.65 3.885-5.65 3.885 1.06 16.95-26.132 9.534-26.132 9.534l-2.824.353c-2.823.354-22.6-1.06-32.84-4.944-10.24-3.884-22.248-3.884-22.248-3.884s-7.063 3.177-20.48 2.824-27.545 4.59-27.545 4.59c-7.77-.706 7.415-8.475 7.77-8.122s10.24-9.535-3.886-8.475c-38.484 2.887-57.56-15.185-57.56-15.185-3.53-2.472-8.122-7.416-8.122-7.416-17.655-3.53 2.473 21.894 2.473 21.894 2.12 2.472-.353 4.238-.353 4.238-1.413-2.825-15.185-12.36-15.185-12.36-4.976-1.71-7.382-4.067-11.498-8.456z"/><path fill="#4C0000" d="M319.604 330.58s20.48 9.886 25.072 14.83c4.59 4.944 29.31 25.072 29.31 25.072s-9.534-3.53-14.124-6.71c-4.592-3.177-23.66-17.655-23.66-17.655s-6.71-10.595-16.598-15.538z"/><path fill="#99CC32" d="M217.18 275.496c.596-.26-.33-5.05-.69-6.008-1.803-4.813-17.655-7.416-17.655-7.416-.4 2.41-.498 5.23-.31 8.12-.002 0 8.594 9.744 18.656 5.304z"/><path fill="#659900" d="M217.18 275.143c-.792.28-.025-4.827-.336-5.655-1.804-4.813-18.01-7.592-18.01-7.592-.4 2.41-.497 5.228-.31 8.12 0 0 7.536 9.037 18.657 5.127z"/><path d="M209.428 275.395c-1.104 0-1.997-2.013-1.997-4.495 0-2.48.895-4.494 1.998-4.494 1.104 0 2 2.013 2 4.494 0 2.482-.896 4.495-2 4.495zM128.915 448.525s-9.888 17.655 33.9 7.063c0 0 24.72-2.12 28.957-6.355 2.12 1.41 16.89 6.59 21.894 7.77 12.006 2.824 26.838-14.834 26.838-14.834s8.122-18.54 13.066-18.54c4.944 0-.707 2.825-.707 2.825s-11.653 17.834-10.947 20.66c0 0-9.18 35.312-37.432 36.725 0 0-28.515 1.678-26.13 12.007 0 0 15.537-4.237 19.774 0 0 0 19.07-.707 4.944 10.595l-12.006 20.48s.247 6.918-17.656.706c-17.303-6.003-35.49-28.78-35.49-28.78s-28.162-25.692-9.005-50.323z"/><path fill="#E59999" d="M126.796 455.588s-3.53 16.95 61.444-1.413c0 0 7.77 0 12.007 1.413 4.237 1.412 25.425 6.356 28.957 4.237 0 0-12.713 24.013-33.194 21.188 0 0-23.307 2.825-22.6 11.302 0 0 7.063 12.712 15.538 16.95 0 0 4.944 4.236 4.237 9.887-.706 5.65-5.65 8.476-9.18 9.888-3.532 1.413-9.182-4.237-12.007-4.237s-17.656-11.3-25.425-19.774c-7.77-8.477-22.6-29.663-21.894-34.607.704-4.947 2.116-14.835 2.116-14.835z"/><path fill="#B26565" d="M132.446 486.398c4.59 6.974 10.24 14.39 14.125 18.627 7.77 8.476 22.6 19.774 25.426 19.774 2.825 0 8.475 5.65 12.006 4.236 3.53-1.412 8.475-4.237 9.18-9.888.708-5.65-4.236-9.888-4.236-9.888-5.414-2.707-10.25-8.873-13.04-12.975 0 0 .327 4.5-8.854 3.087-9.18-1.413-18.363-6.356-21.188-12.007-2.825-5.65-7.063-9.888-4.238-3.53s7.063 12.712 9.888 13.418c2.825.706 2.12 2.825-2.12 2.12-4.237-.708-9.18-1.414-16.95-10.595l.002-2.38z"/><path fill="#992600" d="M127.855 449.23s3.178-24.015 5.297-31.076c0 0-1.413-12.007 2.825-19.422 4.237-7.417 7.77-18.363 13.066-27.897s5.65-16.597 12.712-19.422c7.062-2.825 17.656-18.01 22.6-19.775 4.944-1.765 4.59-.353 4.59-.353s12.007-26.13 36.02-19.07c0 0-28.604-4.943-.706-21.54 0 0-8.476 1.942-2.65-10.417 3.887-8.242 3.002 3.708-16.42 24.542 0 0-8.828 15.185-18.01 20.48-9.18 5.298-30.368 17.658-32.487 24.367-2.12 6.71-7.77 16.95-11.3 19.775-3.53 2.825-8.475 10.24-9.18 16.244 0 0-2.12 7.063-4.592 9.18-2.47 2.12-2.824 7.77-2.824 11.3 0 3.532-3.53 8.477-3.178 12.714 0 0 1.412 33.55.706 37.08l3.53-6.71z"/><path fill="#FFF" d="M112.67 457.354s-3.53-2.472-11.3 8.122c0 0 12.89 58.267 12.89 60.738 0 0 1.942-3.708-.354-16.42-2.295-12.714-3.884-35.138-3.884-35.138l2.65-17.302z"/><path fill="#992600" d="M150.81 350.354s-31.077 5.65-30.37 57.207l-1.413 43.79s-2.12-45.2-4.238-48.025c-2.12-2.825 4.943-22.6-.707-12.007 0 0-24.72 24.72-10.594 62.152 0 0 2.647 5.827-2.65-2.295 0 0-8.12-22.25-6.18-33.55 0 0 .354-3.884 3.71-8.827 0 0 15.184-20.66 19.95-24.72 0 0 3.18-25.425 30.37-34.606 0 0 10.064-4.062 2.12.882z"/><path d="M396.94 233.468c1.163-.625 1.147-2.338 2.173-2.644 2.027-.607 2.317-2.49 3.23-3.875 1.543-2.33 1.884-5.037 2.91-7.67.48-1.235.528-2.92-.023-4.086-2.072-4.38-3.313-8.705-5.858-12.988-.473-.794-.937-2.196-1.29-3.252-.817-2.443-3.037-4.193-4.556-6.524-.51-.78.42-2.412-.847-2.56-1.585-.186-4.144-1.21-4.555.602-1.038 4.568.747 9.022 2.456 13.334-1.38 1.222-.79 2.848-.52 4.202 1.254 6.367-.86 12.286-2.205 18.42-.04.183.563.532.514.642-2.16 4.743-4.723 9.06-7.936 13.264-1.338 1.75-2.878 3.37-3.755 5.246-.65 1.39-1.37 3.095-.93 4.84-6.065 4.908-10.038 11.697-14.647 18.488-.815 1.2-.303 3.335.672 3.81 1.435.704 3.123-1.104 3.953-2.598.687-1.232 1.31-2.38 2.177-3.516.233-.31-.08-1.05.157-1.262 4.647-4.144 7.596-9.328 11.927-13.51 3.44-.58 6.156-2.342 9.242-4.13.544-.316 1.47.124 1.98-.22 3.095-2.08 3.09-5.674 3.278-9.046.09-1.564.437-3.89 2.45-4.968z"/><path d="M381.33 225.583c.22-.136-.056-.883.137-1.264.286-.573.998-.905 1.284-1.477.193-.38-.095-1.052.147-1.303 4.118-4.32 4.572-9.66 2.743-14.91 1.81-1.094 1.915-3.322 1.165-4.817-1.506-3.002-1.847-6.402-3.567-9.127-1.416-2.24-4.202-4.437-6.623-2.136-.743.706-1.31 2.096-.82 3.353.114.288.617.545.57.69-.19.572-1.153.967-1.164 1.448-.052 2.642-1.736 5.31-.624 7.657 1.363 2.876 2.81 6.155 4.003 9.29-2.18 3.737-.356 8.06-3.45 11.375-.24.258-.226.94-.01 1.296.516.858 1.23 1.575 2.09 2.09.357.214.972.218 1.324 0 1.02-.642 1.722-1.5 2.795-2.165zM492.233 207.377c2.45 3.164 2.964 8.1-.653 10.554.97 5.843 6.888 2.35 10.594 1.413-.19-.685.208-1.292.708-1.3 1.866-.027 3.066-1.85 4.94-1.524.768-2.75 3.66-3.99 4.797-6.426 3.047-6.524 2.003-14.07-2.56-19.8-.356-.45.025-1.36-.192-2-1.335-3.904-4.986-4.46-8.4-5.675-2.08-6.843-3.246-13.96-6.355-20.482-2.85-.44-4.082-3.512-6.443-4.783-2.354-1.27-3.355 1.52-3.284 3.365.014.362.812.757.512 1.402-.136.29-.595.486-.595.722.002.238.394.47.63.707-1.62 1.45-4.135 2.29-4.654 4.313-1.687 6.55 2.856 12.068 5.803 17.72 1.044 2.004-.256 4.25-1.598 6.38-.773 1.228-.583 3.218-.097 4.73 1.326 4.113 4.133 7.183 6.845 10.684zM426.622 239.84c-2.626 3.268-8.65 7.804-3.5 11.208.343.228.996.234 1.302-.002 3.568-2.763 7.104-4.357 11.405-5.385.22-.05.702.774 1.353.49 2.85-1.242 6.397-1.14 8.487-3.5 6.65.395 12.946-1.576 18.934-3.885 2.05-.79 4.293-1.778 6.412-2.665 2.43-1.017 4.557-2.655 6.52-4.67.234-.24.86-.082 1.332-.082-.07-1.523 1.628-1.748 2.063-2.846.164-.41-.1-1.11.134-1.29 3.775-2.877 5.4-6.44 3.336-10.637-.504-1.02-.942-2.112-1.94-2.952-1.917-1.608-3.863-.1-5.712-.637-.28 1.108-1.567.805-2.25 1.155-1.516.776-3.87-.257-5.386.516-2.405 1.227-4.598 1.526-7.106 2.19-.552.146-1.925-.024-2.208 1.084-.236-.237-.497-.65-.685-.61-3.37.698-5.595 1.076-7.892 4.063-.18.235-.96-.08-1.242.157-1.688 1.427-2.403 3.605-4.35 4.792-.353.217-.976-.08-1.318.148-1.14.76-1.787 1.893-2.922 2.682-.58.404-1.287-.17-1.23-.622.434-3.438 1.586-6.593.57-9.905 3.667-4.45 8.11-7.89 11.3-12.713.026-3.824 1.25-7.613 1.05-11.28-.02-.34-.526-1.635-.748-2.248-.552-1.508 1.05-3.39-.44-4.668-2.48-2.124-4.762-.578-6.217 1.953-3.245.687-6.893 1.91-9.68-.268-1.777-1.39-2.798-2.99-4.21-4.854-1.737-2.3-1.146-4.834-1.022-7.596.012-.226-.545-.466-.545-.703.002-.24.39-.47.627-.707-1.246-1.105-1.73-2.974-3.53-3.532.537-1.927-.655-3.488-2.193-4.02-3.523-1.22-6.484 2.155-9.824 2.284-.908.034-1.732-1.8-2.878-2.373-.764-.38-2.006-.438-2.646.03-1.215.89-2.255 1.092-3.593 1.454-2.855.77-5.11 2.7-7.726 4.21-2.622 1.514-4.31 4.05-6.216 6.382-1.66 2.034-1.9 6.296.605 7.18 3.254 1.147 5.557-3.626 9.027-3.05.55.09.915.64.72 1.324.69.193 1.072-.212 1.413-.706 1.515 1.8 3.57 2.394 5.227 3.936 1.714 1.596 4.796.858 6.59 2.62 2.697 2.65 1.71 7.385 5.135 9.69-1.034 2.317-2.106 4.572-2.698 7.09-.497 2.13 1.258 4.244 3.396 4.083 2.222-.166 2.684-1.506 3.54-3.406.472.472 1.3.996 1.228 1.377-.806 4.214-2.62 7.733-3.428 12.025-.104.56-.644.916-1.33.72-.826 7.327-7.98 11.554-12.475 17.142-.712.886-.72 3.092.004 3.803 2.48 2.45 5.94-.28 8.94-1.17.375-2.128 1.892-3.79 4.244-3.693.452.018.866-.94 1.438-1.17.614-.243 1.5.153 2.007-.197 3.052-2.11 5.538-4.063 8.605-6.162.34-.23.946.05 1.328-.14.574-.287.904-.97 1.475-1.297.614-.353 1.04.16 1.383.653-1.14.615-1.146 2.305-2.175 2.662-1.367.473-2.358 1.38-3.55 2.168-.515.34-1.68-.097-1.86.22-1.06 1.818-3.15 2.59-4.403 4.15zM328.785 152.602s-16.312-5.07-36.02 40.257c0 0-4.237 9.18-8.474 12.71-4.237 3.532-24.012 9.89-27.543 16.95l-18.363 28.25s26.13-28.25 31.782-32.487c0 0 14.125-14.832 8.475-2.825 0 0-24.718 19.07-22.6 35.313 0 0-9.887 25.426-11.3 28.958 0 0 28.25-56.5 32.488-58.62 4.237-2.12 6.356-2.12 4.237 4.238-2.12 6.357-2.825 35.313-7.77 38.844 0 0 14.126-36.02 12.713-41.67 0 0 5.65-6.355 9.888 2.826l-2.12 28.25 7.77 21.188s-4.237-19.775-1.413-47.32c0 0-3.53-18.362 3.53-8.474 7.063 9.888 24.014 20.48 24.014 28.957 0 0-9.18-31.075-25.425-39.55l-7.063 10.594-2.12-3.53s-6.356-1.413 1.413-13.42c7.77-12.005 7.063-13.418 7.063-13.418s11.3 12.713 14.125 12.713c0 0 23.308-13.42 25.426 29.663 0 0 12.007-25.425-4.237-37.432 0 0-26.133-3.53-24.014-12.712l12.713-21.894c6.355-9.182 3.53-4.238 3.53-4.238l-.705-2.12z"/><path d="M293.473 181.558s-22.6 0-28.25 9.18l-12.713 16.95s30.37-17.655 37.432-19.774 3.53-6.356 3.53-6.356zM222.847 192.858s-3.53 2.12-4.238 7.063c-.707 4.945-4.945 5.65-3.532 10.595 1.413 4.944 4.944 9.182 4.944 2.12 0-7.064 2.825-10.595 4.238-12.713 1.412-2.12 4.237-9.89-1.413-7.064zM207.31 300.916s-14.832-7.063-20.48-13.42c-5.65-6.355-4.853 2.766-13.42 2.12-10.324-.78-8.475-28.957-8.475-28.957l-7.063 13.417s-2.12 25.425 12.006 21.188c6.898-2.07 9.18.706 6.356 2.12-2.825 1.412 9.887 2.118 4.943 4.943-4.943 2.825 20.48-6.356 16.244 12.006l9.89-13.418zM185.063 326.34s-27.19 7.77-33.547-9.18c0 0-8.475 4.237-4.59 9.534 3.884 5.297 6.002 6.003 6.002 6.003s9.534 2.12 8.475 3.53c-1.06 1.414-5.297 7.417-5.297 7.417s18.01-10.594 28.957-17.303z"/><path fill="#FFF" d="M588.337 464.416c-.754 3.768-3.704 5.182-7.063 6.355-3.386-1.69-7.973-7.175-11.3-3.53-.838-.848-2.214-.953-2.82-2.122-.82-1.585-.342-3.433-.944-4.84-.962-2.247-2.214-4.66-1.886-7.162 3.188-1.258 4.24-4.623 3.4-7.735-.12-.453-.878-.8-.524-1.417.33-.57.89-.972 1.36-1.44-.237.236-.493.647-.69.612-1.076-.188-.856-1.313-.627-1.995 1.032-3.083 4.59-3.55 6.97-1.443.45-.998 1.35-.655 2.117-.706-.088-1.02.633-1.952.982-2.693.913-1.938 3.79.014 5.197-1.065 1.898-1.457 3.775-2.69 5.68-1.628 3.193 1.79 6.212 3.93 8.327 7.004 1.017 1.473 1.44 3.733 1.338 5.426-.067 1.143-2.507.52-3.11 2.16-1.14 3.087 2.094 4.004 3.43 6.365.35.615-.118 1.152-.674 1.325-.725.227-2.11-.107-1.865.69 1.716 5.637-3.15 6.834-7.298 7.84zM571.385 499.022c-.012-3.068-2.84-6.17-.704-9.183.24.236.472.626.707.626.238 0 .47-.39.706-.627 2.64 3.912 9.088 5.55 8.837 10.575-.038.79-1.958 2.41-.36 3.55-3.2 2.38-3.3 6.564-4.944 9.887-2.186-.505-4.325-1.146-6.356-2.117.622-2.624.415-5.6 1.863-7.93.763-1.23.258-3.135.252-4.783z"/><path fill="#CCC" d="M277.935 483.132s-29.765 17.896-4.944-9.182c15.54-16.95 33.195-26.838 33.195-26.838s18.362-7.77 24.72-9.89c6.354-2.12 33.192-11.3 38.844-12.007 5.648-.706 22.6-7.77 34.605-.706 12.006 7.062 26.13 14.83 26.13 14.83s-28.955-14.83-35.312-10.594c-6.356 4.237-19.07 3.53-29.663 9.182 0 0-26.13 7.77-31.78 11.303-5.65 3.53-24.014 24.014-26.838 22.602-2.825-1.413.706-2.12 2.825-7.063 2.12-4.944-1.412-7.77-15.538 3.53-14.126 11.3-16.245 14.832-16.245 14.832z"/><path d="M291.01 472.596s2.49-23.022 17.46-20.084c0 0 14.522-7.36 19.33-10.837 0 0 14.37-3.006 16.684-4.095 32.627-15.36 58.614-7.383 59.58-9.36.966-1.976 35.615 10.59 41.987 17.807.69.78-18.062-9.884-35.187-13.223-14.607-2.85-52.748.438-72.005 10.21-5.25 2.665-21.043 12.878-25.513 12.683-4.467-.2-22.335 16.9-22.335 16.9z"/><path fill="#CCC" d="M284.292 517.738s-26.838-4.237 2.825-7.063c0 0 31.782-3.53 38.844-12.713 0 0 24.014-16.244 28.957-16.95 4.944-.706 57.913-13.42 58.62-17.656.706-4.236 10.594-4.236 13.418-2.824 2.825 1.413 1.413 3.53-3.53 4.943-4.944 1.412-60.032 30.37-71.333 32.487-11.3 2.12-31.78 15.538-40.256 17.656-8.476 2.12-27.544 2.12-27.544 2.12z"/><path d="M318.757 504.676s-15.153-1.464.033-2.91c0 0 15.566-6.045 19.183-10.747 0 0 12.296-8.317 14.826-8.68 2.53-.36 27.18-6.87 27.54-9.04.363-2.17 60.51-24.383 68.315-18.75 5.14 3.71-12.343.748-29.354 8.535-2.392 1.095-62.163 26.85-67.95 27.934-5.784 1.086-16.27 7.955-20.61 9.04-4.338 1.085-11.983 4.616-11.983 4.616zM304.773 508.557s9.18-.706 7.063 2.12c-2.12 2.824-6.357 1.41-6.357 1.41l-.707-3.53zM292.06 511.382s9.182-.706 7.064 2.12c-2.12 2.824-6.356 1.41-6.356 1.41l-.707-3.53zM273.698 514.207s9.18-.706 7.063 2.12c-2.118 2.823-6.355 1.41-6.355 1.41l-.707-3.53zM260.28 515.62s9.18-.707 7.062 2.118c-2.118 2.825-6.356 1.412-6.356 1.412l-.707-3.53zM328.08 445.7s7.77 0 5.648 2.825c-2.12 2.824-7.77 2.117-7.77 2.117l2.12-4.942zM310.423 455.588s11.487-3.78 7.063 2.118c-2.118 2.825-6.356 1.413-6.356 1.413l-.707-3.532zM290.648 464.063s9.18-.705 7.063 2.12c-2.117 2.824-6.355 1.41-6.355 1.41l-.707-3.53zM277.23 474.656s9.18-.706 7.062 2.12c-2.118 2.823-6.356 1.41-6.356 1.41l-.707-3.53zM265.223 483.132s9.18-.706 7.063 2.118c-2.12 2.825-6.356 1.413-6.356 1.413l-.707-3.53z"/><path d="M334.228 494.427s12.22-.938 9.4 2.82c-2.82 3.76-8.46 1.88-8.46 1.88l-.94-4.7zM352.59 485.95s12.22-.938 9.4 2.82c-2.82 3.762-8.46 1.88-8.46 1.88l-.94-4.7zM371.66 478.183s12.22-.938 9.398 2.82c-2.82 3.76-8.46 1.88-8.46 1.88l-.94-4.7zM390.02 469.708s12.222-.94 9.4 2.82c-2.82 3.76-8.46 1.88-8.46 1.88l-.94-4.7zM341.29 437.926s12.22-.938 9.4 2.82c-2.82 3.76-9.874 3.293-9.874 3.293l.474-6.114zM358.946 432.276s12.22-.94 9.4 2.818c-2.82 3.762-10.58 3.293-10.58 3.293l1.18-6.11zM318.898 502.907s9.18-.706 7.063 2.118c-2.118 2.824-6.354 1.413-6.354 1.413l-.708-3.53z"/><path fill="#992600" d="M189.653 327.753s-7.77 15.538-8.475 21.188c0 0 1.413-15.537 3.53-19.068 2.12-3.53 4.945-2.12 4.945-2.12zM157.165 352.472s-5.65 25.425-4.944 30.37c0 0-2.118-20.482-1.41-22.6.705-2.12 6.355-7.77 6.355-7.77z"/><path fill="#CCC" d="M193.89 220.755l-.352 5.65-3.885.354s25.072 22.246 26.132 35.665c0 0 1.412-14.48-21.894-41.67z"/><path d="M200.925 222.99c-.76-.735-.374-2.05-1.095-2.51-1.428-.91 2.292-1.012 1.89-2.276-.677-2.13-.347-2.167-.563-4.42-.1-1.055.938-3.774 1.618-4.55 2.553-2.918.215-8.095 3.11-10.834.538-.51 1.202-1.485 1.705-2.223 1.164-1.7 3.254-2.562 4.93-4.024.563-.487.208-1.948 1.212-1.785 1.26.203 3.452-.026 3.373 1.458-.2 3.743-2.546 6.78-4.806 9.725.795 1.244-.014 2.365-.515 3.35-2.357 4.625-2.023 9.64-2.33 14.656-.01.15-.552.288-.538.38.623 4.124 1.654 8.006 3.207 11.942.646 1.642 1.478 3.222 1.743 4.86.196 1.21.378 2.68-.343 3.926 3.593 5.103 1.282 9.783 3.346 16.018.365 1.104 3.353 4.483 2.535 4.2-4.437-1.54-4.635-2.242-4.947-3.57-.258-1.1-.84-3.532-1.26-4.595-.112-.29-.414-3.616-.552-3.832-2.67-4.206-.274-3.895-2.692-8.06-2.52-1.2-4.227-3.15-6.21-5.2-.35-.36 1.668-1.64 1.35-2.015-1.93-2.276-3.965-3.63-3.372-6.267.275-1.217.516-3.083-.797-4.354zM194.597 226.052s.707 12.006 4.944 14.832c4.24 2.825 2.12 1.413-3.53-.706-5.65-2.12-3.53-3.53-3.53-3.53s-4.945.705-.707 4.236c4.237 3.53 10.594 7.77 7.77 7.77s-16.245-7.064-16.245-12.007c0-4.944-1.766-12.183-1.766-12.183s1.942-1.413 10.417-1.236c-.002 0 2.47 1.235 2.647 2.824z"/><path fill="#FFF" stroke="#000" stroke-width=".1" d="M193.184 258.894s-15.043-4.928-47.672 1.06c0 0 15.946-3.67 49.085.352 18.186 2.207-1.413-1.412-1.413-1.412z"/><path fill="#FFF" stroke="#000" stroke-width=".1" d="M196.89 258.768s-14.56-6.21-47.587-3.067c0 0 16.205-2.275 48.87 4.597 17.93 3.77-1.284-1.53-1.284-1.53z"/><path fill="#FFF" stroke="#000" stroke-width=".1" d="M200.045 258.932s-14.058-7.276-47.226-6.596c0 0 16.328-1.066 48.394 8.217 17.597 5.094-1.17-1.62-1.17-1.62z"/><path fill="#FFF" stroke="#000" stroke-width=".1" d="M202.288 259.326s-12.05-7.604-41.842-9.543c0 0 14.724.3 42.764 11.086 15.39 5.92-.922-1.544-.922-1.544zM405.838 277.894s-1.642 1.137-1.264-.948c.38-2.085 50.185-25.34 56.564-24.897.002-.002-53.406 23.315-55.3 25.844z"/><path fill="#FFF" stroke="#000" stroke-width=".1" d="M399.846 279.02s-1.547 1.264-1.333-.845c.214-2.108 48.04-29.202 54.436-29.262-.003 0-51.413 27.44-53.104 30.108z"/><path fill="#FFF" stroke="#000" stroke-width=".1" d="M394.044 281.45s-1.462 1.362-1.388-.756c.074-2.117 35.063-29.48 52.39-32.788 0 0-31.836 14.35-51.002 33.543z"/><path fill="#FFF" stroke="#000" stroke-width=".1" d="M388.966 284.74s-1.314 1.225-1.248-.68c.066-1.908 31.557-26.533 47.147-29.51 0 0-28.65 12.914-45.9 30.19z"/><path fill="#CCC" d="M333.023 545.988s-26.838-4.237 2.824-7.063c0 0 31.78-3.53 38.845-12.712 0 0 24.013-16.244 28.956-16.95 4.943-.707 33.9-7.063 34.606-11.3.706-4.238 11.3-8.476 14.125-7.064 2.824 1.412 2.824 17.654-2.12 19.067-4.942 1.412-38.138 14.125-49.438 16.244-11.3 2.12-31.782 15.538-40.257 17.657-8.473 2.12-27.542 2.12-27.542 2.12z"/><path d="M461.915 479.953s-5.297 2.825-7.416 7.416c0 0-11.3 18.715-36.373 24.365 0 0-40.61 15.89-54.382 19.422 0 0-23.66 8.828-36.727 7.416 0 0-12.358.353-1.41 3.178 0 0 35.665-3.53 41.668-6.708 0 0 27.544-9.182 32.84-13.772 5.298-4.59 37.433-13.42 41.316-16.95 3.885-3.53 21.19-18.363 20.483-24.367z"/><path d="M358.24 535.59s9.23-.4 7.195 2.335c-2.034 2.737-6.356 1.193-6.356 1.193l-.84-3.53zM345.523 537.977s9.23-.398 7.196 2.336c-2.037 2.736-6.358 1.195-6.358 1.195l-.84-3.53zM327.11 540.18s9.23-.4 7.195 2.336c-2.034 2.735-6.356 1.193-6.356 1.193l-.84-3.53zM313.63 541.14s9.233-.397 7.198 2.337c-2.036 2.736-6.358 1.193-6.358 1.193l-.84-3.53zM387.432 522.526s12.29-.53 9.578 3.108c-2.708 3.642-8.463 1.59-8.463 1.59l-1.115-4.698zM405.645 514.714s10.52-5.828 9.578 3.11c-.477 4.512-8.463 1.588-8.463 1.588l-1.115-4.698zM421.768 509.745s12.642-6.534 9.58 3.108c-1.375 4.326-8.466 1.59-8.466 1.59l-1.114-4.698zM438.566 501.226s7.695-8.652 9.578 3.11c.717 4.48-8.464 1.59-8.464 1.59l-1.114-4.7zM372.28 530.444s9.23-.4 7.196 2.336c-2.035 2.733-6.36 1.192-6.36 1.192l-.836-3.528z"/><path fill="#FFF" stroke="#000" stroke-width=".1" d="M435.138 316.105s-1.282 1.174-1.284-.717c0-1.89 30.87-25.31 46.484-27.752 0 0-28.425 11.88-45.2 28.47z"/><path d="M440.374 428.748s38.847 39.553 55.09 45.908c0 0 16.244 19.774 9.183 65.683 0 0-5.65 13.418-11.3-23.308 0 0 5.648-44.494-14.126-16.244 0 0-14.833-17.48-3.532-16.95 0 0 5.65 3.53 6.357.706.707-2.825-13.42-26.838-43.79-52.265-30.368-25.426 2.12-3.532 2.12-3.532z"/><path fill="#FFF" stroke="#000" stroke-width=".1" d="M337.26 497.257s-.353-3.178 2.826-1.766c3.178 1.413 169.503 12.36 225.298 54.735 0 .002-79.808-40.96-228.123-52.968z"/><path fill="#FFF" stroke="#000" stroke-width=".1" d="M355.623 489.488s-.354-3.18 2.825-1.767c3.18 1.413 244.367-.353 286.036 56.855 0 0-38.843-44.493-288.86-55.087z"/><path fill="#FFF" stroke="#000" stroke-width=".1" d="M376.104 482.426s-.353-3.18 2.825-1.766c3.18 1.412 309.342-21.54 351.012 35.666 0 0-16.95-45.2-353.838-33.9zM393.762 473.95s-.354-3.178 2.824-1.767c3.18 1.413 218.94-66.742 260.61-9.533 0 0-23.66-43.436-263.434 11.3zM291.354 514.207s-.353-3.178 2.825-1.766c3.177 1.413 34.605 5.298 38.137 73.805 0 0-12.713-74.157-40.963-72.038z"/><path fill="#FFF" stroke="#000" stroke-width=".1" d="M275.816 517.032s-.353-3.18 2.825-1.767c3.18 1.412 28.25-6.71 23.307 61.797 0 0 2.12-62.15-26.13-60.03z"/><path fill="#FFF" stroke="#000" stroke-width=".1" d="M261.69 517.738s-.353-3.18 2.826-1.767c3.18 1.413 30.37 2.474 8.475 42.023 0 .002 16.95-42.374-11.3-40.255zM345.252 439.457s-.784 3.53 1.95 1.38c28.37-22.29 85.65-126.29 183.972-136.238 0 0-67.638-21.383-185.922 134.857zM365.027 436.278s-2.406-2.106.892-3.21c3.297-1.104 201.83-129.115 271.193-115.05 0 0-47.86-13.26-272.086 118.26z"/><path fill="#FFF" stroke="#000" stroke-width=".1" d="M328.23 447.053s-.898 2.823 2.12 1.1c15.85-9.04 22.23-110.053 99.172-112.27 0 0-57.225-25.98-101.293 111.17z"/><path fill="#FFF" stroke="#000" stroke-width=".1" d="M293.053 466.52s-1.902 2.272 1.546 1.822c18.09-2.352 55.883-75.222 134.347-66.254 0 0-56.44-25.33-135.894 64.433z"/><path fill="#FFF" stroke="#000" stroke-width=".1" d="M312.895 455.704s-1.432 2.594 1.868 1.49c17.303-5.78 40.403-84.55 119.13-90.813 0 .002-60.254-14.023-120.998 89.324z"/><path fill="#FFF" stroke="#000" stroke-width=".1" d="M280.623 475.56s-1.542 1.84 1.252 1.477c14.653-1.905 45.265-60.93 108.822-53.665 0-.002-45.718-20.518-110.074 52.187z"/><path fill="#FFF" stroke="#000" stroke-width=".1" d="M267.206 485.992s-1.775 1.845 1.035 1.637c7.36-.547 61.456-58.952 94.064-31.58 0 0-21.215-33.06-95.098 29.942zM389.974 429.627s-2.12-2.392 1.29-3.07c3.412-.68 216.53-102.58 283.56-79.863 0 0-45.803-19.2-284.85 82.933zM330.904 543.164s-.354-3.18 2.824-1.768c3.18 1.413 30.37 2.474 8.476 42.022 0 .002 16.95-42.373-11.3-40.254zM349.268 540.34s-.354-3.18 2.824-1.767c3.18 1.412 34.607 5.297 38.14 73.804-.002 0-12.714-74.157-40.964-72.038z"/><path fill="#FFF" stroke="#000" stroke-width=".1" d="M361.273 537.514s-.354-3.18 2.824-1.766c3.18 1.412 46.613 7.416 88.282 64.622 0 0-62.857-64.975-91.107-62.856z"/><path fill="#FFF" stroke="#000" stroke-width=".1" d="M374.736 533.93s-.77-3.103 2.564-2.124c3.337.98 39.416-2.375 106.684 57.97 0-.003-81.53-61.7-109.248-55.845zM393.1 526.162s-.77-3.104 2.565-2.126c3.337.98 64.84 8.926 156.12 70.68 0 0-130.967-74.408-158.685-68.554z"/><path fill="#FFF" stroke="#000" stroke-width=".1" d="M321.723 505.732s-.353-3.18 2.825-1.767c3.18 1.412 97.464 6.003 151.14 53.322 0 .002-61.624-43.742-153.965-51.555zM304.066 512.795s-.353-3.18 2.825-1.766c3.18 1.41 46.614 7.414 88.283 64.62 0 0-62.856-64.974-91.107-62.855zM412.306 518.02s-.997-3.036 2.403-2.307 65.32 4.147 160.88 59.05c0 0-137.128-60.727-163.284-56.742z"/><path fill="#FFF" stroke="#000" stroke-width=".1" d="M427.138 513.785s-.998-3.04 2.402-2.31c3.4.73 65.322 4.148 160.88 59.05 0 0-136.066-61.433-163.282-56.74zM444.088 504.957s-.998-3.04 2.402-2.308c3.4.728 79.447 8.384 237.863 68.935 0 0-213.05-71.32-240.265-66.628z"/><path d="M247.566 517.032s9.182-.706 7.063 2.118-6.357 1.412-6.357 1.412l-.707-3.53zM301.948 541.75s9.18-.705 7.063 2.12c-2.118 2.825-6.355 1.412-6.355 1.412l-.707-3.53zM286.41 541.045s9.182-.706 7.063 2.12c-2.12 2.823-6.356 1.41-6.356 1.41l-.707-3.53zM118.022 520.177s8.908 2.336 5.98 4.313c-2.926 1.978-6.47-.745-6.47-.745l.49-3.568zM121.554 503.227s8.908 2.336 5.98 4.313c-2.926 1.978-6.47-.745-6.47-.745l.49-3.568zM108.84 495.458s8.91 2.336 5.98 4.312c-2.924 1.98-6.468-.744-6.468-.744l.49-3.568z"/><path fill="#CCC" d="M249.685 627.914s-2.825 0-9.888 3.53c-3.53 0-23.307 6.356-33.194 24.014 0 0 21.894-16.95 43.082-27.544zM404.56 791.494c.25.456.348 1.197.862 1.228 1.16.07 3.34.603 3.118-.52-1.497-7.605-3.04-16.32-10.338-19.51-1.13-.494-3.675.234-3.806 1.796-.225 2.69-.432 5.072.114 7.66.53 2.51 4.34 2.526 5.96.084 1.653 2.952 2.416 6.206 4.09 9.262zM385 799.854c1.32 2.494 1.097 5.776 3.595 6.77 1.308.52 4.573-1.2 3.835-3.098-1.416-3.64-2.1-7.594-4.554-10.79-.353-.463.07-1.403-.212-1.982-1.048-2.154-3.07-3.452-5.556-2.87-1.97 3.89.058 7.647 2.744 10.665.242.266-.05.93.148 1.304zM315.077 790.69c-.19-.667-.258-1.484.033-2.053.938-1.822 2.338-3.805 1.742-5.608-.613-1.865-2.585-1.544-3.73-.54-2.005 1.756-2.092 4.98-3.313 7.38-.348.682-.257 1.692-1.035 2.383-.838.744-1.613 3.435-1.444 4.442.095.553-.228 18.047.164 17.583 1.093-1.295 6.478-18.48 6.6-20.058.1-1.288 1.393-2.11.983-3.53zM269.81 778.697c4.65-4.413 9.577-9.642 8.796-16.195-.205-1.723-3.34-.792-3.67.7-1.415 6.4-5.015 11.1-9.55 15.323-3.876 3.613-7.164 14.814-7.58 15.713 6.528-9.28 10.513-14.13 12.004-15.54zM245.843 768.167c.923-.653.39-1.52.773-2.106 1.683-2.573 3.98-4.772 4.012-7.843.005-.49-.662-1.034-1.254-.64-.49.325-1.093.556-1.284.785-3.584 4.322-6.056 9.04-8.604 14.005-.323.63-2.343 8.56-1.79 8.756.422.148 3.46-7.232 3.83-7.434 2.23-1.21 2.25-4.063 4.317-5.523zM275.387 802.674c.784-1.534 3.567-3.656 3.367-5.226-.208-1.64.618-4.188-.992-2.973-2.22 1.675-8.31 4.057-8.786 14.312-.046 1.008 5.206-3.747 6.41-6.113zM300.89 772.344c.705-1.18 1.955-.344 2.766-.81 1.144-.655 2.223-1.642 2.738-2.787 1.713-3.794 4.836-7.008 5.09-11.234-2.635-2.48-3.832 1.12-4.945 2.825-2.337-2.908-4.1.4-6.396 1.316-.124.05-.5-.563-.632-.516-2.078.776-3.28 2.687-5.04 4.064-.303.236-1.018-.082-1.277.158-1.15 1.064-2.87 1.64-3.364 2.843-1.958 4.78-7.503 8.48-10.834 21.795.672 1.604 7.966-11.728 8.826-12.96 1.476-2.11 1.685 2.934 3.938 1.758.09-.048.418.372.655.608.342-.494.727-.898 1.413-.706 0-.706-.237-1.688.118-1.97 2.184-1.725 2.036-3.61 3.413-5.8.806 1.396 2.68.127 3.53 1.416zM406.474 868.395s13.066-36.02 5.298-55.794c0 0 20.13 38.14 12.007 57.914 0 0-.707-18.36-7.77-27.19 0 0-7.064 22.6-9.536 25.07zM380.343 863.805s9.534-15.538-4.59-48.024c0 0-1.414 36.02-13.42 55.44 0 0 25.072-35.666 18.01-7.415zM362.686 860.273s-.353-35.313.354-40.61c0 0-6.71 29.31-24.72 46.26 0 0 25.425-21.188 24.366-5.65zM345.736 803.77s10.594 24.015-7.063 56.503c0 0 11.3-21.54 2.825-33.9 0 0 4.59-6.004 4.238-22.602zM311.836 859.566s-1.766-27.545 1.412-31.43c0 0 .354-11.3-.354-13.064 0 0 7.063-10.946 7.416 2.12 0 0 2.473 13.77 7.416 21.893 0 0 6.356 9.535 6.003 20.835 0 0-17.657-53.322-21.894-.354zM305.48 810.835s-11.654 19.07-14.832 52.616c0 0-2.472-10.946 4.237-36.37 0 0 7.416-27.192 10.594-16.245zM266.988 845.795s8.828-9.535 11.3-18.363c0 0 6.356-27.896-4.943-12.712 0 0 .353 14.125-14.125 27.19 0 0 8.474-4.237 7.768 3.885zM256.748 836.967s6.003-30.723 7.416-32.135c0 0 3.178-6.003-1.766-.354 0 0-15.538 33.9-22.6 45.555 0 0 14.124-16.245 16.95-13.066zM246.507 807.657s20.48-39.552-18.01 6.003c0 0 19.422-17.304 18.01-6.003zM219.316 781.88s8.475-33.194 13.065-32.843c0 0 14.48-15.89 2.826 2.825 0 0-10.594 16.95-9.535 34.254.002 0-1.057-16.95-6.354-4.237zM802.508 761.748s-21.188-17.656-25.602-23.836c0 0 23.836 32.664 23.836 45.023 0 .003 4.414-13.242 1.766-21.187zM812.22 722.904s-37.08-26.484-43.26-39.728c0 0 46.79 52.086 46.79 60.03 0 .003.883-15.888-3.53-20.302zM842.234 450.995s-21.188-14.125-23.836-10.594c0 0 18.54 11.478 22.952 26.484.002.002-2.647-15.89.884-15.89zM857.242 593.13l-30.898-21.188s33.547 30.017 34.43 37.08l-3.532-15.892z"/><path stroke="#000" d="M167.317 553.402l38.844 8.387M256.04 839.438s-.882-6.18-16.772 12.358M265.752 848.265s3.53-11.477-7.946-3.53M361.097 863.27s2.648-19.42-17.655 3.532"/></svg>